<svg width="553" height="422" viewBox="0 0 553 422" fill="none" xmlns="http://www.w3.org/2000/svg">
    <path d="M40.4102 347.369C44.2721 349.672 47.3505 352.592 49.5333 356.242C49.981 356.972 50.2049 357.758 50.2049 358.6C50.2049 359.836 49.6452 360.79 48.4698 361.52C47.9661 361.801 47.3505 361.914 46.7348 361.914C46.0072 361.914 45.3355 361.745 44.7198 361.408C44.1041 361.071 43.6005 360.566 43.2087 359.892C39.5706 354.164 34.1416 351.3 26.8096 351.244C21.5484 351.244 17.4066 352.367 14.3843 354.557C11.3619 356.747 9.85065 359.892 9.85065 363.991C9.85065 371.572 15.9514 376.177 28.2088 377.806C36.2125 378.985 42.2012 381.456 46.1751 385.218C50.0929 388.98 52.1078 393.922 52.1078 400.099C52.1078 404.648 50.9885 408.579 48.8056 411.892C46.6228 415.205 43.6004 417.732 39.7945 419.417C35.9886 421.158 31.6789 422 26.9775 422C20.8208 422 15.3917 420.708 10.6342 418.069C5.87679 415.43 2.46271 411.892 0.391829 407.4C0.111981 406.95 0 406.445 0 405.827C0 404.929 0.335863 404.143 1.0075 403.525C1.67914 402.907 2.63057 402.626 3.74996 402.626C4.53354 402.626 5.26114 402.851 5.93278 403.244C6.60442 403.693 7.10817 404.255 7.44399 405.041C8.95517 407.961 11.4179 410.32 14.888 412.117C18.3581 413.914 22.3879 414.812 26.9775 414.812C32.2946 414.812 36.5483 413.521 39.7945 410.937C43.0408 408.354 44.6639 404.816 44.6639 400.155C44.6639 396.056 43.1527 392.631 40.1303 389.823C37.1079 387.015 32.6304 385.218 26.5856 384.488C19.0857 383.59 13.1529 381.231 8.89917 377.413C4.5895 373.594 2.46268 368.989 2.46268 363.43C2.46268 359.555 3.52609 356.13 5.59698 353.153C7.72383 350.177 10.6342 347.931 14.3282 346.359C18.0782 344.786 22.276 344 26.9775 344C32.0147 344 36.4923 345.123 40.4102 347.369Z" fill="url(#paint0_linear)"/>
    <path d="M131.528 349.054C137.461 352.423 142.05 357.084 145.408 362.981C148.711 368.877 150.39 375.559 150.39 382.916C150.39 390.328 148.711 397.011 145.408 402.907C142.05 408.86 137.461 413.521 131.528 416.89C125.595 420.259 118.991 421.944 111.659 421.944C104.271 421.944 97.666 420.259 91.7892 416.89C85.9123 413.521 81.2668 408.86 77.9646 402.907C74.6064 396.955 72.9834 390.272 72.9834 382.916C72.9834 375.503 74.6624 368.877 77.9646 362.981C81.3228 357.084 85.9123 352.423 91.7892 349.054C97.666 345.685 104.326 344 111.659 344C119.047 344 125.651 345.685 131.528 349.054ZM95.6511 355.344C90.8937 358.151 87.1437 361.97 84.4571 366.799C81.7146 371.628 80.3714 377.02 80.3714 382.916C80.3714 388.868 81.7146 394.315 84.4571 399.145C87.1996 403.974 90.8937 407.793 95.6511 410.6C100.409 413.408 105.782 414.812 111.714 414.812C117.591 414.812 122.908 413.408 127.666 410.6C132.423 407.793 136.173 403.974 138.86 399.145C141.602 394.315 142.946 388.924 142.946 382.916C142.946 377.02 141.602 371.628 138.86 366.799C136.117 361.97 132.423 358.151 127.666 355.344C122.908 352.536 117.591 351.132 111.714 351.132C105.782 351.188 100.409 352.592 95.6511 355.344Z" fill="url(#paint1_linear)"/>
    <path d="M219.961 414.813C220.689 415.487 221.024 416.33 221.024 417.397C221.024 418.464 220.689 419.306 219.961 419.98C219.233 420.654 218.338 420.991 217.218 420.991H175.465C174.402 420.991 173.562 420.597 172.778 419.867C172.051 419.137 171.659 418.239 171.659 417.172V348.718C171.659 347.708 172.051 346.809 172.778 346.023C173.506 345.293 174.402 344.9 175.465 344.9C176.584 344.9 177.48 345.237 178.208 345.967C178.935 346.697 179.271 347.595 179.271 348.718V413.747H217.218C218.338 413.803 219.233 414.14 219.961 414.813Z" fill="url(#paint2_linear)"/>
    <path d="M308.729 417.172C308.729 418.183 308.337 419.081 307.609 419.867C306.882 420.597 305.986 420.991 304.923 420.991C303.244 420.991 302.068 420.204 301.341 418.632L294.848 402.852H257.292L250.8 418.632C250.296 420.204 249.121 420.991 247.33 420.991C246.21 420.991 245.315 420.597 244.643 419.867C243.972 419.137 243.636 418.239 243.636 417.172C243.636 416.498 243.748 415.993 243.916 415.543L272.46 347.595C273.188 345.855 274.419 344.956 276.154 344.956C277.889 344.956 279.121 345.855 279.736 347.595L308.337 415.656C308.617 416.105 308.729 416.61 308.729 417.172ZM292.217 396.338L276.098 357.31L259.979 396.338H292.217Z" fill="url(#paint3_linear)"/>
    <path d="M381.489 417.79C381.489 418.744 381.153 419.53 380.425 420.148C379.698 420.71 378.802 421.047 377.627 421.047C376.843 421.047 376.227 420.878 375.668 420.541C375.164 420.204 374.716 419.755 374.324 419.081L356.862 391.228H355.239H340.854V417.228C340.854 418.351 340.519 419.25 339.791 419.98C339.063 420.71 338.168 421.047 337.049 421.047C335.929 421.047 335.034 420.71 334.306 419.98C333.579 419.25 333.243 418.351 333.243 417.228V348.775C333.243 347.651 333.579 346.753 334.306 346.023C335.034 345.293 335.929 344.956 337.049 344.956H355.183C359.884 344.956 364.082 345.967 367.776 347.932C371.47 349.898 374.38 352.706 376.451 356.243C378.578 359.837 379.586 363.88 379.586 368.429C379.586 373.427 378.242 377.807 375.556 381.569C372.869 385.332 369.231 388.027 364.642 389.656L380.537 415.15C381.209 416.105 381.489 417.004 381.489 417.79ZM355.183 383.872C358.429 383.872 361.339 383.198 363.97 381.85C366.601 380.502 368.615 378.705 370.071 376.347C371.526 373.988 372.254 371.349 372.254 368.373C372.254 365.284 371.526 362.477 370.071 360.006C368.615 357.535 366.601 355.626 364.026 354.278C361.451 352.93 358.485 352.256 355.183 352.256H340.799V383.872H355.183Z" fill="url(#paint4_linear)"/>
    <path d="M462.03 414.701C462.757 415.375 463.093 416.217 463.093 417.284C463.093 418.351 462.757 419.194 462.03 419.924C461.302 420.654 460.407 420.991 459.287 420.991H413.784C412.721 420.991 411.881 420.597 411.097 419.867C410.37 419.137 409.978 418.239 409.978 417.172V348.718C409.978 347.595 410.37 346.697 411.097 345.967C411.825 345.237 412.721 344.9 413.784 344.9H459.287C460.407 344.9 461.302 345.237 462.03 345.967C462.757 346.697 463.093 347.539 463.093 348.606C463.093 349.617 462.757 350.515 462.03 351.189C461.302 351.863 460.407 352.2 459.287 352.2H417.534V379.099H447.926C449.045 379.099 449.94 379.435 450.668 380.166C451.396 380.896 451.731 381.738 451.731 382.805C451.731 383.816 451.34 384.714 450.612 385.444C449.885 386.174 448.989 386.511 447.926 386.511H417.534V413.69H459.287C460.407 413.69 461.302 414.027 462.03 414.701Z" fill="url(#paint5_linear)"/>
    <path d="M552.757 417.172C552.757 418.183 552.365 419.081 551.637 419.867C550.91 420.597 550.014 420.991 548.951 420.991C547.272 420.991 546.096 420.204 545.369 418.632L538.876 402.852H501.321L494.828 418.632C494.324 420.204 493.149 420.991 491.358 420.991C490.239 420.991 489.343 420.597 488.671 419.867C488 419.137 487.664 418.239 487.664 417.172C487.664 416.498 487.776 415.993 487.944 415.543L516.488 347.595C517.216 345.855 518.447 344.956 520.182 344.956C521.918 344.956 523.149 345.855 523.764 347.595L552.365 415.656C552.645 416.105 552.757 416.61 552.757 417.172ZM536.246 396.338L520.126 357.31L504.007 396.338H536.246Z" fill="url(#paint6_linear)"/>
    <g filter="url(#filter0_f)">
        <path d="M276 294C336.751 294 386 244.751 386 184C386 123.249 336.751 74 276 74C215.249 74 166 123.249 166 184C166 244.751 215.249 294 276 294Z" fill="url(#paint7_radial)"/>
    </g>
    <path d="M276.403 279.88C329.133 279.88 371.88 237.133 371.88 184.403C371.88 131.672 329.133 88.9258 276.403 88.9258C223.672 88.9258 180.926 131.672 180.926 184.403C180.926 237.133 223.672 279.88 276.403 279.88Z" fill="url(#paint8_radial)"/>
    <path fill-rule="evenodd" clip-rule="evenodd" d="M377.136 184.403C377.136 239.806 331.806 285.136 276.403 285.136C221 285.136 175.67 239.806 175.67 184.403C175.67 129 221 83.6704 276.403 83.6704C331.806 83.6704 377.136 129 377.136 184.403ZM294.031 146.125C262.804 154.687 236.11 172.819 221.504 156.702C194.306 126.482 276.907 61.0056 338.354 119.43C346.916 127.489 362.529 145.621 365.551 173.322C365.551 173.826 364.544 174.33 364.544 173.322C357.996 150.658 331.806 135.548 294.031 146.125ZM258.775 223.689C290.002 215.126 316.696 196.995 331.302 213.112C358.5 243.332 275.899 308.808 214.452 250.383C205.89 242.324 190.277 224.192 187.255 196.491C187.255 195.987 188.262 195.484 188.262 196.491C194.81 219.156 221 234.266 258.775 223.689Z" fill="#112244"/>
    <defs>
        <filter id="filter0_f" x="40" y="-52" width="472" height="472" filterUnits="userSpaceOnUse" color-interpolation-filters="sRGB">
            <feFlood flood-opacity="0" result="BackgroundImageFix"/>
            <feBlend mode="normal" in="SourceGraphic" in2="BackgroundImageFix" result="shape"/>
            <feGaussianBlur stdDeviation="63" result="effect1_foregroundBlur"/>
        </filter>
        <linearGradient id="paint0_linear" x1="-0.0252715" y1="382.973" x2="52.0982" y2="382.973" gradientUnits="userSpaceOnUse">
            <stop stop-color="#FF7820"/>
            <stop offset="1" stop-color="#FFB101"/>
        </linearGradient>
        <linearGradient id="paint1_linear" x1="72.9459" y1="382.945" x2="150.375" y2="382.945" gradientUnits="userSpaceOnUse">
            <stop stop-color="#FF7820"/>
            <stop offset="1" stop-color="#FFB101"/>
        </linearGradient>
        <linearGradient id="paint2_linear" x1="171.635" y1="382.919" x2="221.015" y2="382.919" gradientUnits="userSpaceOnUse">
            <stop stop-color="#FF7820"/>
            <stop offset="1" stop-color="#FFB101"/>
        </linearGradient>
        <linearGradient id="paint3_linear" x1="243.604" y1="382.947" x2="308.717" y2="382.947" gradientUnits="userSpaceOnUse">
            <stop stop-color="#FF7820"/>
            <stop offset="1" stop-color="#FFB101"/>
        </linearGradient>
        <linearGradient id="paint4_linear" x1="333.219" y1="382.975" x2="381.48" y2="382.975" gradientUnits="userSpaceOnUse">
            <stop stop-color="#FF7820"/>
            <stop offset="1" stop-color="#FFB101"/>
        </linearGradient>
        <linearGradient id="paint5_linear" x1="409.952" y1="382.919" x2="463.083" y2="382.919" gradientUnits="userSpaceOnUse">
            <stop stop-color="#FF7820"/>
            <stop offset="1" stop-color="#FFB101"/>
        </linearGradient>
        <linearGradient id="paint6_linear" x1="487.632" y1="382.947" x2="552.745" y2="382.947" gradientUnits="userSpaceOnUse">
            <stop stop-color="#FF7820"/>
            <stop offset="1" stop-color="#FFB101"/>
        </linearGradient>
        <radialGradient id="paint7_radial" cx="0" cy="0" r="1" gradientUnits="userSpaceOnUse" gradientTransform="translate(334.241 202.984) scale(153.338)">
            <stop stop-color="#FFB300"/>
            <stop offset="0.2399" stop-color="#FFB001"/>
            <stop offset="0.3925" stop-color="#FFA806"/>
            <stop offset="0.5207" stop-color="#FF990E"/>
            <stop offset="0.6354" stop-color="#FF8419"/>
            <stop offset="0.7411" stop-color="#FF6928"/>
            <stop offset="0.8402" stop-color="#FF4839"/>
            <stop offset="0.9324" stop-color="#FF214E"/>
            <stop offset="1" stop-color="#FF0060"/>
        </radialGradient>
        <radialGradient id="paint8_radial" cx="0" cy="0" r="1" gradientUnits="userSpaceOnUse" gradientTransform="translate(326.954 200.881) scale(133.093)">
            <stop stop-color="#FFB300"/>
            <stop offset="0.2399" stop-color="#FFB001"/>
            <stop offset="0.3925" stop-color="#FFA806"/>
            <stop offset="0.5207" stop-color="#FF990E"/>
            <stop offset="0.6354" stop-color="#FF8419"/>
            <stop offset="0.7411" stop-color="#FF6928"/>
            <stop offset="0.8402" stop-color="#FF4839"/>
            <stop offset="0.9324" stop-color="#FF214E"/>
            <stop offset="1" stop-color="#FF0060"/>
        </radialGradient>
    </defs>
</svg>
