<svg width="1407" height="466" viewBox="0 0 1407 466" fill="none" xmlns="http://www.w3.org/2000/svg">
    <path d="M7.71359 20.36C6.77359 20.36 5.90359 20.17 5.10359 19.79C4.30359 19.41 3.60359 18.84 3.00359 18.08C2.42359 17.3 1.96359 16.34 1.62359 15.2C1.28359 14.04 1.11359 12.69 1.11359 11.15C1.11359 9.23 1.31359 7.6 1.71359 6.26C2.11359 4.9 2.65359 3.8 3.33359 2.96C4.01359 2.1 4.78359 1.48 5.64359 1.1C6.52359 0.7 7.44359 0.5 8.40359 0.5C9.44359 0.5 10.3336 0.7 11.0736 1.1C11.8336 1.48 12.4836 1.96 13.0236 2.54L11.6436 4.07C11.2436 3.61 10.7636 3.25 10.2036 2.99C9.66359 2.71 9.09359 2.57 8.49359 2.57C7.83359 2.57 7.20359 2.71 6.60359 2.99C6.00359 3.27 5.47359 3.73 5.01359 4.37C4.55359 5.01 4.18359 5.85 3.90359 6.89C3.62359 7.91 3.47359 9.18 3.45359 10.7C4.05359 9.96 4.75359 9.38 5.55359 8.96C6.35359 8.52 7.14359 8.3 7.92359 8.3C9.58359 8.3 10.9036 8.79 11.8836 9.77C12.8836 10.75 13.3836 12.23 13.3836 14.21C13.3836 15.13 13.2336 15.97 12.9336 16.73C12.6336 17.47 12.2236 18.11 11.7036 18.65C11.1836 19.19 10.5836 19.61 9.90359 19.91C9.22359 20.21 8.49359 20.36 7.71359 20.36ZM7.71359 18.41C8.19359 18.41 8.63359 18.31 9.03359 18.11C9.43359 17.91 9.78359 17.63 10.0836 17.27C10.3836 16.89 10.6136 16.45 10.7736 15.95C10.9536 15.43 11.0436 14.85 11.0436 14.21C11.0436 12.95 10.7536 11.96 10.1736 11.24C9.59359 10.52 8.70359 10.16 7.50359 10.16C6.88359 10.16 6.21359 10.36 5.49359 10.76C4.77359 11.14 4.11359 11.78 3.51359 12.68C3.67359 14.56 4.10359 15.99 4.80359 16.97C5.52359 17.93 6.49359 18.41 7.71359 18.41Z" fill="white"/>
    <path d="M16.5957 25.1L15.9957 23.66C16.8557 23.28 17.5257 22.77 18.0057 22.13C18.4857 21.51 18.7157 20.8 18.6957 20C18.6357 20.02 18.5357 20.03 18.3957 20.03C17.9157 20.03 17.4957 19.89 17.1357 19.61C16.7957 19.31 16.6257 18.88 16.6257 18.32C16.6257 17.78 16.8057 17.36 17.1657 17.06C17.5257 16.74 17.9557 16.58 18.4557 16.58C19.0957 16.58 19.5957 16.84 19.9557 17.36C20.3357 17.88 20.5257 18.59 20.5257 19.49C20.5257 20.79 20.1757 21.92 19.4757 22.88C18.7757 23.84 17.8157 24.58 16.5957 25.1Z" fill="white"/>
    <path d="M29.5264 20.36C27.5864 20.36 26.0764 19.5 24.9964 17.78C23.9164 16.06 23.3764 13.59 23.3764 10.37C23.3764 7.15 23.9164 4.7 24.9964 3.02C26.0764 1.34 27.5864 0.5 29.5264 0.5C31.4464 0.5 32.9464 1.34 34.0264 3.02C35.1064 4.7 35.6464 7.15 35.6464 10.37C35.6464 13.59 35.1064 16.06 34.0264 17.78C32.9464 19.5 31.4464 20.36 29.5264 20.36ZM29.5264 18.38C30.0864 18.38 30.5864 18.23 31.0264 17.93C31.4864 17.61 31.8764 17.13 32.1964 16.49C32.5364 15.83 32.7964 15 32.9764 14C33.1564 12.98 33.2464 11.77 33.2464 10.37C33.2464 8.97 33.1564 7.77 32.9764 6.77C32.7964 5.77 32.5364 4.96 32.1964 4.34C31.8764 3.7 31.4864 3.23 31.0264 2.93C30.5864 2.63 30.0864 2.48 29.5264 2.48C28.9664 2.48 28.4564 2.63 27.9964 2.93C27.5364 3.23 27.1364 3.7 26.7964 4.34C26.4764 4.96 26.2264 5.77 26.0464 6.77C25.8664 7.77 25.7764 8.97 25.7764 10.37C25.7764 13.17 26.1164 15.21 26.7964 16.49C27.4964 17.75 28.4064 18.38 29.5264 18.38Z" fill="white"/>
    <path d="M44.4385 20.36C42.4985 20.36 40.9885 19.5 39.9085 17.78C38.8285 16.06 38.2885 13.59 38.2885 10.37C38.2885 7.15 38.8285 4.7 39.9085 3.02C40.9885 1.34 42.4985 0.5 44.4385 0.5C46.3585 0.5 47.8585 1.34 48.9385 3.02C50.0185 4.7 50.5585 7.15 50.5585 10.37C50.5585 13.59 50.0185 16.06 48.9385 17.78C47.8585 19.5 46.3585 20.36 44.4385 20.36ZM44.4385 18.38C44.9985 18.38 45.4985 18.23 45.9385 17.93C46.3985 17.61 46.7885 17.13 47.1085 16.49C47.4485 15.83 47.7085 15 47.8885 14C48.0685 12.98 48.1585 11.77 48.1585 10.37C48.1585 8.97 48.0685 7.77 47.8885 6.77C47.7085 5.77 47.4485 4.96 47.1085 4.34C46.7885 3.7 46.3985 3.23 45.9385 2.93C45.4985 2.63 44.9985 2.48 44.4385 2.48C43.8785 2.48 43.3685 2.63 42.9085 2.93C42.4485 3.23 42.0485 3.7 41.7085 4.34C41.3885 4.96 41.1385 5.77 40.9585 6.77C40.7785 7.77 40.6885 8.97 40.6885 10.37C40.6885 13.17 41.0285 15.21 41.7085 16.49C42.4085 17.75 43.3185 18.38 44.4385 18.38Z" fill="white"/>
    <path d="M59.3506 20.36C57.4106 20.36 55.9006 19.5 54.8206 17.78C53.7406 16.06 53.2006 13.59 53.2006 10.37C53.2006 7.15 53.7406 4.7 54.8206 3.02C55.9006 1.34 57.4106 0.5 59.3506 0.5C61.2706 0.5 62.7706 1.34 63.8506 3.02C64.9306 4.7 65.4706 7.15 65.4706 10.37C65.4706 13.59 64.9306 16.06 63.8506 17.78C62.7706 19.5 61.2706 20.36 59.3506 20.36ZM59.3506 18.38C59.9106 18.38 60.4106 18.23 60.8506 17.93C61.3106 17.61 61.7006 17.13 62.0206 16.49C62.3606 15.83 62.6206 15 62.8006 14C62.9806 12.98 63.0706 11.77 63.0706 10.37C63.0706 8.97 62.9806 7.77 62.8006 6.77C62.6206 5.77 62.3606 4.96 62.0206 4.34C61.7006 3.7 61.3106 3.23 60.8506 2.93C60.4106 2.63 59.9106 2.48 59.3506 2.48C58.7906 2.48 58.2806 2.63 57.8206 2.93C57.3606 3.23 56.9606 3.7 56.6206 4.34C56.3006 4.96 56.0506 5.77 55.8706 6.77C55.6906 7.77 55.6006 8.97 55.6006 10.37C55.6006 13.17 55.9406 15.21 56.6206 16.49C57.3206 17.75 58.2306 18.38 59.3506 18.38Z" fill="white"/>
    <path d="M68.8027 25.1L68.2027 23.66C69.0627 23.28 69.7327 22.77 70.2127 22.13C70.6927 21.51 70.9227 20.8 70.9027 20C70.8427 20.02 70.7427 20.03 70.6027 20.03C70.1227 20.03 69.7027 19.89 69.3427 19.61C69.0027 19.31 68.8327 18.88 68.8327 18.32C68.8327 17.78 69.0127 17.36 69.3727 17.06C69.7327 16.74 70.1627 16.58 70.6627 16.58C71.3027 16.58 71.8027 16.84 72.1627 17.36C72.5427 17.88 72.7327 18.59 72.7327 19.49C72.7327 20.79 72.3827 21.92 71.6827 22.88C70.9827 23.84 70.0227 24.58 68.8027 25.1Z" fill="white"/>
    <path d="M81.7334 20.36C79.7934 20.36 78.2834 19.5 77.2034 17.78C76.1234 16.06 75.5834 13.59 75.5834 10.37C75.5834 7.15 76.1234 4.7 77.2034 3.02C78.2834 1.34 79.7934 0.5 81.7334 0.5C83.6534 0.5 85.1534 1.34 86.2334 3.02C87.3134 4.7 87.8534 7.15 87.8534 10.37C87.8534 13.59 87.3134 16.06 86.2334 17.78C85.1534 19.5 83.6534 20.36 81.7334 20.36ZM81.7334 18.38C82.2934 18.38 82.7934 18.23 83.2334 17.93C83.6934 17.61 84.0834 17.13 84.4034 16.49C84.7434 15.83 85.0034 15 85.1834 14C85.3634 12.98 85.4534 11.77 85.4534 10.37C85.4534 8.97 85.3634 7.77 85.1834 6.77C85.0034 5.77 84.7434 4.96 84.4034 4.34C84.0834 3.7 83.6934 3.23 83.2334 2.93C82.7934 2.63 82.2934 2.48 81.7334 2.48C81.1734 2.48 80.6634 2.63 80.2034 2.93C79.7434 3.23 79.3434 3.7 79.0034 4.34C78.6834 4.96 78.4334 5.77 78.2534 6.77C78.0734 7.77 77.9834 8.97 77.9834 10.37C77.9834 13.17 78.3234 15.21 79.0034 16.49C79.7034 17.75 80.6134 18.38 81.7334 18.38Z" fill="white"/>
    <path d="M96.6455 20.36C94.7055 20.36 93.1955 19.5 92.1155 17.78C91.0355 16.06 90.4955 13.59 90.4955 10.37C90.4955 7.15 91.0355 4.7 92.1155 3.02C93.1955 1.34 94.7055 0.5 96.6455 0.5C98.5655 0.5 100.066 1.34 101.146 3.02C102.226 4.7 102.766 7.15 102.766 10.37C102.766 13.59 102.226 16.06 101.146 17.78C100.066 19.5 98.5655 20.36 96.6455 20.36ZM96.6455 18.38C97.2055 18.38 97.7055 18.23 98.1455 17.93C98.6055 17.61 98.9955 17.13 99.3155 16.49C99.6555 15.83 99.9155 15 100.096 14C100.276 12.98 100.366 11.77 100.366 10.37C100.366 8.97 100.276 7.77 100.096 6.77C99.9155 5.77 99.6555 4.96 99.3155 4.34C98.9955 3.7 98.6055 3.23 98.1455 2.93C97.7055 2.63 97.2055 2.48 96.6455 2.48C96.0855 2.48 95.5755 2.63 95.1155 2.93C94.6555 3.23 94.2555 3.7 93.9155 4.34C93.5955 4.96 93.3455 5.77 93.1655 6.77C92.9855 7.77 92.8955 8.97 92.8955 10.37C92.8955 13.17 93.2355 15.21 93.9155 16.49C94.6155 17.75 95.5255 18.38 96.6455 18.38Z" fill="white"/>
    <path d="M111.558 20.36C109.618 20.36 108.108 19.5 107.028 17.78C105.948 16.06 105.408 13.59 105.408 10.37C105.408 7.15 105.948 4.7 107.028 3.02C108.108 1.34 109.618 0.5 111.558 0.5C113.478 0.5 114.978 1.34 116.058 3.02C117.138 4.7 117.678 7.15 117.678 10.37C117.678 13.59 117.138 16.06 116.058 17.78C114.978 19.5 113.478 20.36 111.558 20.36ZM111.558 18.38C112.118 18.38 112.618 18.23 113.058 17.93C113.518 17.61 113.908 17.13 114.228 16.49C114.568 15.83 114.828 15 115.008 14C115.188 12.98 115.278 11.77 115.278 10.37C115.278 8.97 115.188 7.77 115.008 6.77C114.828 5.77 114.568 4.96 114.228 4.34C113.908 3.7 113.518 3.23 113.058 2.93C112.618 2.63 112.118 2.48 111.558 2.48C110.998 2.48 110.488 2.63 110.028 2.93C109.568 3.23 109.168 3.7 108.828 4.34C108.508 4.96 108.258 5.77 108.078 6.77C107.898 7.77 107.808 8.97 107.808 10.37C107.808 13.17 108.148 15.21 108.828 16.49C109.528 17.75 110.438 18.38 111.558 18.38Z" fill="white"/>
    <path d="M8.79359 140V134.72H0.183594V133.1L8.37359 120.86H11.1336V132.74H13.7436V134.72H11.1336V140H8.79359ZM2.79359 132.74H8.79359V127.19C8.79359 126.67 8.80359 126.06 8.82359 125.36C8.86359 124.64 8.90359 124.02 8.94359 123.5H8.82359C8.58359 123.96 8.33359 124.41 8.07359 124.85C7.81359 125.29 7.54359 125.74 7.26359 126.2L2.79359 132.74Z" fill="white"/>
    <path d="M16.5957 145.1L15.9957 143.66C16.8557 143.28 17.5257 142.77 18.0057 142.13C18.4857 141.51 18.7157 140.8 18.6957 140C18.6357 140.02 18.5357 140.03 18.3957 140.03C17.9157 140.03 17.4957 139.89 17.1357 139.61C16.7957 139.31 16.6257 138.88 16.6257 138.32C16.6257 137.78 16.8057 137.36 17.1657 137.06C17.5257 136.74 17.9557 136.58 18.4557 136.58C19.0957 136.58 19.5957 136.84 19.9557 137.36C20.3357 137.88 20.5257 138.59 20.5257 139.49C20.5257 140.79 20.1757 141.92 19.4757 142.88C18.7757 143.84 17.8157 144.58 16.5957 145.1Z" fill="white"/>
    <path d="M29.5264 140.36C27.5864 140.36 26.0764 139.5 24.9964 137.78C23.9164 136.06 23.3764 133.59 23.3764 130.37C23.3764 127.15 23.9164 124.7 24.9964 123.02C26.0764 121.34 27.5864 120.5 29.5264 120.5C31.4464 120.5 32.9464 121.34 34.0264 123.02C35.1064 124.7 35.6464 127.15 35.6464 130.37C35.6464 133.59 35.1064 136.06 34.0264 137.78C32.9464 139.5 31.4464 140.36 29.5264 140.36ZM29.5264 138.38C30.0864 138.38 30.5864 138.23 31.0264 137.93C31.4864 137.61 31.8764 137.13 32.1964 136.49C32.5364 135.83 32.7964 135 32.9764 134C33.1564 132.98 33.2464 131.77 33.2464 130.37C33.2464 128.97 33.1564 127.77 32.9764 126.77C32.7964 125.77 32.5364 124.96 32.1964 124.34C31.8764 123.7 31.4864 123.23 31.0264 122.93C30.5864 122.63 30.0864 122.48 29.5264 122.48C28.9664 122.48 28.4564 122.63 27.9964 122.93C27.5364 123.23 27.1364 123.7 26.7964 124.34C26.4764 124.96 26.2264 125.77 26.0464 126.77C25.8664 127.77 25.7764 128.97 25.7764 130.37C25.7764 133.17 26.1164 135.21 26.7964 136.49C27.4964 137.75 28.4064 138.38 29.5264 138.38Z" fill="white"/>
    <path d="M44.4385 140.36C42.4985 140.36 40.9885 139.5 39.9085 137.78C38.8285 136.06 38.2885 133.59 38.2885 130.37C38.2885 127.15 38.8285 124.7 39.9085 123.02C40.9885 121.34 42.4985 120.5 44.4385 120.5C46.3585 120.5 47.8585 121.34 48.9385 123.02C50.0185 124.7 50.5585 127.15 50.5585 130.37C50.5585 133.59 50.0185 136.06 48.9385 137.78C47.8585 139.5 46.3585 140.36 44.4385 140.36ZM44.4385 138.38C44.9985 138.38 45.4985 138.23 45.9385 137.93C46.3985 137.61 46.7885 137.13 47.1085 136.49C47.4485 135.83 47.7085 135 47.8885 134C48.0685 132.98 48.1585 131.77 48.1585 130.37C48.1585 128.97 48.0685 127.77 47.8885 126.77C47.7085 125.77 47.4485 124.96 47.1085 124.34C46.7885 123.7 46.3985 123.23 45.9385 122.93C45.4985 122.63 44.9985 122.48 44.4385 122.48C43.8785 122.48 43.3685 122.63 42.9085 122.93C42.4485 123.23 42.0485 123.7 41.7085 124.34C41.3885 124.96 41.1385 125.77 40.9585 126.77C40.7785 127.77 40.6885 128.97 40.6885 130.37C40.6885 133.17 41.0285 135.21 41.7085 136.49C42.4085 137.75 43.3185 138.38 44.4385 138.38Z" fill="white"/>
    <path d="M59.3506 140.36C57.4106 140.36 55.9006 139.5 54.8206 137.78C53.7406 136.06 53.2006 133.59 53.2006 130.37C53.2006 127.15 53.7406 124.7 54.8206 123.02C55.9006 121.34 57.4106 120.5 59.3506 120.5C61.2706 120.5 62.7706 121.34 63.8506 123.02C64.9306 124.7 65.4706 127.15 65.4706 130.37C65.4706 133.59 64.9306 136.06 63.8506 137.78C62.7706 139.5 61.2706 140.36 59.3506 140.36ZM59.3506 138.38C59.9106 138.38 60.4106 138.23 60.8506 137.93C61.3106 137.61 61.7006 137.13 62.0206 136.49C62.3606 135.83 62.6206 135 62.8006 134C62.9806 132.98 63.0706 131.77 63.0706 130.37C63.0706 128.97 62.9806 127.77 62.8006 126.77C62.6206 125.77 62.3606 124.96 62.0206 124.34C61.7006 123.7 61.3106 123.23 60.8506 122.93C60.4106 122.63 59.9106 122.48 59.3506 122.48C58.7906 122.48 58.2806 122.63 57.8206 122.93C57.3606 123.23 56.9606 123.7 56.6206 124.34C56.3006 124.96 56.0506 125.77 55.8706 126.77C55.6906 127.77 55.6006 128.97 55.6006 130.37C55.6006 133.17 55.9406 135.21 56.6206 136.49C57.3206 137.75 58.2306 138.38 59.3506 138.38Z" fill="white"/>
    <path d="M68.8027 145.1L68.2027 143.66C69.0627 143.28 69.7327 142.77 70.2127 142.13C70.6927 141.51 70.9227 140.8 70.9027 140C70.8427 140.02 70.7427 140.03 70.6027 140.03C70.1227 140.03 69.7027 139.89 69.3427 139.61C69.0027 139.31 68.8327 138.88 68.8327 138.32C68.8327 137.78 69.0127 137.36 69.3727 137.06C69.7327 136.74 70.1627 136.58 70.6627 136.58C71.3027 136.58 71.8027 136.84 72.1627 137.36C72.5427 137.88 72.7327 138.59 72.7327 139.49C72.7327 140.79 72.3827 141.92 71.6827 142.88C70.9827 143.84 70.0227 144.58 68.8027 145.1Z" fill="white"/>
    <path d="M81.7334 140.36C79.7934 140.36 78.2834 139.5 77.2034 137.78C76.1234 136.06 75.5834 133.59 75.5834 130.37C75.5834 127.15 76.1234 124.7 77.2034 123.02C78.2834 121.34 79.7934 120.5 81.7334 120.5C83.6534 120.5 85.1534 121.34 86.2334 123.02C87.3134 124.7 87.8534 127.15 87.8534 130.37C87.8534 133.59 87.3134 136.06 86.2334 137.78C85.1534 139.5 83.6534 140.36 81.7334 140.36ZM81.7334 138.38C82.2934 138.38 82.7934 138.23 83.2334 137.93C83.6934 137.61 84.0834 137.13 84.4034 136.49C84.7434 135.83 85.0034 135 85.1834 134C85.3634 132.98 85.4534 131.77 85.4534 130.37C85.4534 128.97 85.3634 127.77 85.1834 126.77C85.0034 125.77 84.7434 124.96 84.4034 124.34C84.0834 123.7 83.6934 123.23 83.2334 122.93C82.7934 122.63 82.2934 122.48 81.7334 122.48C81.1734 122.48 80.6634 122.63 80.2034 122.93C79.7434 123.23 79.3434 123.7 79.0034 124.34C78.6834 124.96 78.4334 125.77 78.2534 126.77C78.0734 127.77 77.9834 128.97 77.9834 130.37C77.9834 133.17 78.3234 135.21 79.0034 136.49C79.7034 137.75 80.6134 138.38 81.7334 138.38Z" fill="white"/>
    <path d="M96.6455 140.36C94.7055 140.36 93.1955 139.5 92.1155 137.78C91.0355 136.06 90.4955 133.59 90.4955 130.37C90.4955 127.15 91.0355 124.7 92.1155 123.02C93.1955 121.34 94.7055 120.5 96.6455 120.5C98.5655 120.5 100.066 121.34 101.146 123.02C102.226 124.7 102.766 127.15 102.766 130.37C102.766 133.59 102.226 136.06 101.146 137.78C100.066 139.5 98.5655 140.36 96.6455 140.36ZM96.6455 138.38C97.2055 138.38 97.7055 138.23 98.1455 137.93C98.6055 137.61 98.9955 137.13 99.3155 136.49C99.6555 135.83 99.9155 135 100.096 134C100.276 132.98 100.366 131.77 100.366 130.37C100.366 128.97 100.276 127.77 100.096 126.77C99.9155 125.77 99.6555 124.96 99.3155 124.34C98.9955 123.7 98.6055 123.23 98.1455 122.93C97.7055 122.63 97.2055 122.48 96.6455 122.48C96.0855 122.48 95.5755 122.63 95.1155 122.93C94.6555 123.23 94.2555 123.7 93.9155 124.34C93.5955 124.96 93.3455 125.77 93.1655 126.77C92.9855 127.77 92.8955 128.97 92.8955 130.37C92.8955 133.17 93.2355 135.21 93.9155 136.49C94.6155 137.75 95.5255 138.38 96.6455 138.38Z" fill="white"/>
    <path d="M111.558 140.36C109.618 140.36 108.108 139.5 107.028 137.78C105.948 136.06 105.408 133.59 105.408 130.37C105.408 127.15 105.948 124.7 107.028 123.02C108.108 121.34 109.618 120.5 111.558 120.5C113.478 120.5 114.978 121.34 116.058 123.02C117.138 124.7 117.678 127.15 117.678 130.37C117.678 133.59 117.138 136.06 116.058 137.78C114.978 139.5 113.478 140.36 111.558 140.36ZM111.558 138.38C112.118 138.38 112.618 138.23 113.058 137.93C113.518 137.61 113.908 137.13 114.228 136.49C114.568 135.83 114.828 135 115.008 134C115.188 132.98 115.278 131.77 115.278 130.37C115.278 128.97 115.188 127.77 115.008 126.77C114.828 125.77 114.568 124.96 114.228 124.34C113.908 123.7 113.518 123.23 113.058 122.93C112.618 122.63 112.118 122.48 111.558 122.48C110.998 122.48 110.488 122.63 110.028 122.93C109.568 123.23 109.168 123.7 108.828 124.34C108.508 124.96 108.258 125.77 108.078 126.77C107.898 127.77 107.808 128.97 107.808 130.37C107.808 133.17 108.148 135.21 108.828 136.49C109.528 137.75 110.438 138.38 111.558 138.38Z" fill="white"/>
    <path d="M0.873594 260V258.53C2.31359 257.09 3.59359 255.79 4.71359 254.63C5.83359 253.47 6.77359 252.4 7.53359 251.42C8.29359 250.42 8.87359 249.51 9.27359 248.69C9.67359 247.85 9.87359 247.04 9.87359 246.26C9.87359 245.16 9.57359 244.26 8.97359 243.56C8.37359 242.86 7.46359 242.51 6.24359 242.51C5.44359 242.51 4.70359 242.74 4.02359 243.2C3.34359 243.64 2.72359 244.18 2.16359 244.82L0.753593 243.41C1.55359 242.53 2.40359 241.83 3.30359 241.31C4.20359 240.77 5.28359 240.5 6.54359 240.5C8.32359 240.5 9.72359 241.02 10.7436 242.06C11.7636 243.08 12.2736 244.44 12.2736 246.14C12.2736 247.04 12.0736 247.95 11.6736 248.87C11.2936 249.77 10.7536 250.71 10.0536 251.69C9.37359 252.65 8.55359 253.66 7.59359 254.72C6.65359 255.76 5.61359 256.87 4.47359 258.05C4.99359 258.01 5.53359 257.97 6.09359 257.93C6.65359 257.89 7.18359 257.87 7.68359 257.87H13.2336V260H0.873594Z" fill="white"/>
    <path d="M16.5957 265.1L15.9957 263.66C16.8557 263.28 17.5257 262.77 18.0057 262.13C18.4857 261.51 18.7157 260.8 18.6957 260C18.6357 260.02 18.5357 260.03 18.3957 260.03C17.9157 260.03 17.4957 259.89 17.1357 259.61C16.7957 259.31 16.6257 258.88 16.6257 258.32C16.6257 257.78 16.8057 257.36 17.1657 257.06C17.5257 256.74 17.9557 256.58 18.4557 256.58C19.0957 256.58 19.5957 256.84 19.9557 257.36C20.3357 257.88 20.5257 258.59 20.5257 259.49C20.5257 260.79 20.1757 261.92 19.4757 262.88C18.7757 263.84 17.8157 264.58 16.5957 265.1Z" fill="white"/>
    <path d="M29.5264 260.36C27.5864 260.36 26.0764 259.5 24.9964 257.78C23.9164 256.06 23.3764 253.59 23.3764 250.37C23.3764 247.15 23.9164 244.7 24.9964 243.02C26.0764 241.34 27.5864 240.5 29.5264 240.5C31.4464 240.5 32.9464 241.34 34.0264 243.02C35.1064 244.7 35.6464 247.15 35.6464 250.37C35.6464 253.59 35.1064 256.06 34.0264 257.78C32.9464 259.5 31.4464 260.36 29.5264 260.36ZM29.5264 258.38C30.0864 258.38 30.5864 258.23 31.0264 257.93C31.4864 257.61 31.8764 257.13 32.1964 256.49C32.5364 255.83 32.7964 255 32.9764 254C33.1564 252.98 33.2464 251.77 33.2464 250.37C33.2464 248.97 33.1564 247.77 32.9764 246.77C32.7964 245.77 32.5364 244.96 32.1964 244.34C31.8764 243.7 31.4864 243.23 31.0264 242.93C30.5864 242.63 30.0864 242.48 29.5264 242.48C28.9664 242.48 28.4564 242.63 27.9964 242.93C27.5364 243.23 27.1364 243.7 26.7964 244.34C26.4764 244.96 26.2264 245.77 26.0464 246.77C25.8664 247.77 25.7764 248.97 25.7764 250.37C25.7764 253.17 26.1164 255.21 26.7964 256.49C27.4964 257.75 28.4064 258.38 29.5264 258.38Z" fill="white"/>
    <path d="M44.4385 260.36C42.4985 260.36 40.9885 259.5 39.9085 257.78C38.8285 256.06 38.2885 253.59 38.2885 250.37C38.2885 247.15 38.8285 244.7 39.9085 243.02C40.9885 241.34 42.4985 240.5 44.4385 240.5C46.3585 240.5 47.8585 241.34 48.9385 243.02C50.0185 244.7 50.5585 247.15 50.5585 250.37C50.5585 253.59 50.0185 256.06 48.9385 257.78C47.8585 259.5 46.3585 260.36 44.4385 260.36ZM44.4385 258.38C44.9985 258.38 45.4985 258.23 45.9385 257.93C46.3985 257.61 46.7885 257.13 47.1085 256.49C47.4485 255.83 47.7085 255 47.8885 254C48.0685 252.98 48.1585 251.77 48.1585 250.37C48.1585 248.97 48.0685 247.77 47.8885 246.77C47.7085 245.77 47.4485 244.96 47.1085 244.34C46.7885 243.7 46.3985 243.23 45.9385 242.93C45.4985 242.63 44.9985 242.48 44.4385 242.48C43.8785 242.48 43.3685 242.63 42.9085 242.93C42.4485 243.23 42.0485 243.7 41.7085 244.34C41.3885 244.96 41.1385 245.77 40.9585 246.77C40.7785 247.77 40.6885 248.97 40.6885 250.37C40.6885 253.17 41.0285 255.21 41.7085 256.49C42.4085 257.75 43.3185 258.38 44.4385 258.38Z" fill="white"/>
    <path d="M59.3506 260.36C57.4106 260.36 55.9006 259.5 54.8206 257.78C53.7406 256.06 53.2006 253.59 53.2006 250.37C53.2006 247.15 53.7406 244.7 54.8206 243.02C55.9006 241.34 57.4106 240.5 59.3506 240.5C61.2706 240.5 62.7706 241.34 63.8506 243.02C64.9306 244.7 65.4706 247.15 65.4706 250.37C65.4706 253.59 64.9306 256.06 63.8506 257.78C62.7706 259.5 61.2706 260.36 59.3506 260.36ZM59.3506 258.38C59.9106 258.38 60.4106 258.23 60.8506 257.93C61.3106 257.61 61.7006 257.13 62.0206 256.49C62.3606 255.83 62.6206 255 62.8006 254C62.9806 252.98 63.0706 251.77 63.0706 250.37C63.0706 248.97 62.9806 247.77 62.8006 246.77C62.6206 245.77 62.3606 244.96 62.0206 244.34C61.7006 243.7 61.3106 243.23 60.8506 242.93C60.4106 242.63 59.9106 242.48 59.3506 242.48C58.7906 242.48 58.2806 242.63 57.8206 242.93C57.3606 243.23 56.9606 243.7 56.6206 244.34C56.3006 244.96 56.0506 245.77 55.8706 246.77C55.6906 247.77 55.6006 248.97 55.6006 250.37C55.6006 253.17 55.9406 255.21 56.6206 256.49C57.3206 257.75 58.2306 258.38 59.3506 258.38Z" fill="white"/>
    <path d="M68.8027 265.1L68.2027 263.66C69.0627 263.28 69.7327 262.77 70.2127 262.13C70.6927 261.51 70.9227 260.8 70.9027 260C70.8427 260.02 70.7427 260.03 70.6027 260.03C70.1227 260.03 69.7027 259.89 69.3427 259.61C69.0027 259.31 68.8327 258.88 68.8327 258.32C68.8327 257.78 69.0127 257.36 69.3727 257.06C69.7327 256.74 70.1627 256.58 70.6627 256.58C71.3027 256.58 71.8027 256.84 72.1627 257.36C72.5427 257.88 72.7327 258.59 72.7327 259.49C72.7327 260.79 72.3827 261.92 71.6827 262.88C70.9827 263.84 70.0227 264.58 68.8027 265.1Z" fill="white"/>
    <path d="M81.7334 260.36C79.7934 260.36 78.2834 259.5 77.2034 257.78C76.1234 256.06 75.5834 253.59 75.5834 250.37C75.5834 247.15 76.1234 244.7 77.2034 243.02C78.2834 241.34 79.7934 240.5 81.7334 240.5C83.6534 240.5 85.1534 241.34 86.2334 243.02C87.3134 244.7 87.8534 247.15 87.8534 250.37C87.8534 253.59 87.3134 256.06 86.2334 257.78C85.1534 259.5 83.6534 260.36 81.7334 260.36ZM81.7334 258.38C82.2934 258.38 82.7934 258.23 83.2334 257.93C83.6934 257.61 84.0834 257.13 84.4034 256.49C84.7434 255.83 85.0034 255 85.1834 254C85.3634 252.98 85.4534 251.77 85.4534 250.37C85.4534 248.97 85.3634 247.77 85.1834 246.77C85.0034 245.77 84.7434 244.96 84.4034 244.34C84.0834 243.7 83.6934 243.23 83.2334 242.93C82.7934 242.63 82.2934 242.48 81.7334 242.48C81.1734 242.48 80.6634 242.63 80.2034 242.93C79.7434 243.23 79.3434 243.7 79.0034 244.34C78.6834 244.96 78.4334 245.77 78.2534 246.77C78.0734 247.77 77.9834 248.97 77.9834 250.37C77.9834 253.17 78.3234 255.21 79.0034 256.49C79.7034 257.75 80.6134 258.38 81.7334 258.38Z" fill="white"/>
    <path d="M96.6455 260.36C94.7055 260.36 93.1955 259.5 92.1155 257.78C91.0355 256.06 90.4955 253.59 90.4955 250.37C90.4955 247.15 91.0355 244.7 92.1155 243.02C93.1955 241.34 94.7055 240.5 96.6455 240.5C98.5655 240.5 100.066 241.34 101.146 243.02C102.226 244.7 102.766 247.15 102.766 250.37C102.766 253.59 102.226 256.06 101.146 257.78C100.066 259.5 98.5655 260.36 96.6455 260.36ZM96.6455 258.38C97.2055 258.38 97.7055 258.23 98.1455 257.93C98.6055 257.61 98.9955 257.13 99.3155 256.49C99.6555 255.83 99.9155 255 100.096 254C100.276 252.98 100.366 251.77 100.366 250.37C100.366 248.97 100.276 247.77 100.096 246.77C99.9155 245.77 99.6555 244.96 99.3155 244.34C98.9955 243.7 98.6055 243.23 98.1455 242.93C97.7055 242.63 97.2055 242.48 96.6455 242.48C96.0855 242.48 95.5755 242.63 95.1155 242.93C94.6555 243.23 94.2555 243.7 93.9155 244.34C93.5955 244.96 93.3455 245.77 93.1655 246.77C92.9855 247.77 92.8955 248.97 92.8955 250.37C92.8955 253.17 93.2355 255.21 93.9155 256.49C94.6155 257.75 95.5255 258.38 96.6455 258.38Z" fill="white"/>
    <path d="M111.558 260.36C109.618 260.36 108.108 259.5 107.028 257.78C105.948 256.06 105.408 253.59 105.408 250.37C105.408 247.15 105.948 244.7 107.028 243.02C108.108 241.34 109.618 240.5 111.558 240.5C113.478 240.5 114.978 241.34 116.058 243.02C117.138 244.7 117.678 247.15 117.678 250.37C117.678 253.59 117.138 256.06 116.058 257.78C114.978 259.5 113.478 260.36 111.558 260.36ZM111.558 258.38C112.118 258.38 112.618 258.23 113.058 257.93C113.518 257.61 113.908 257.13 114.228 256.49C114.568 255.83 114.828 255 115.008 254C115.188 252.98 115.278 251.77 115.278 250.37C115.278 248.97 115.188 247.77 115.008 246.77C114.828 245.77 114.568 244.96 114.228 244.34C113.908 243.7 113.518 243.23 113.058 242.93C112.618 242.63 112.118 242.48 111.558 242.48C110.998 242.48 110.488 242.63 110.028 242.93C109.568 243.23 109.168 243.7 108.828 244.34C108.508 244.96 108.258 245.77 108.078 246.77C107.898 247.77 107.808 248.97 107.808 250.37C107.808 253.17 108.148 255.21 108.828 256.49C109.528 257.75 110.438 258.38 111.558 258.38Z" fill="white"/>
    <path d="M111.558 380.36C109.618 380.36 108.108 379.5 107.028 377.78C105.948 376.06 105.408 373.59 105.408 370.37C105.408 367.15 105.948 364.7 107.028 363.02C108.108 361.34 109.618 360.5 111.558 360.5C113.478 360.5 114.978 361.34 116.058 363.02C117.138 364.7 117.678 367.15 117.678 370.37C117.678 373.59 117.138 376.06 116.058 377.78C114.978 379.5 113.478 380.36 111.558 380.36ZM111.558 378.38C112.118 378.38 112.618 378.23 113.058 377.93C113.518 377.61 113.908 377.13 114.228 376.49C114.568 375.83 114.828 375 115.008 374C115.188 372.98 115.278 371.77 115.278 370.37C115.278 368.97 115.188 367.77 115.008 366.77C114.828 365.77 114.568 364.96 114.228 364.34C113.908 363.7 113.518 363.23 113.058 362.93C112.618 362.63 112.118 362.48 111.558 362.48C110.998 362.48 110.488 362.63 110.028 362.93C109.568 363.23 109.168 363.7 108.828 364.34C108.508 364.96 108.258 365.77 108.078 366.77C107.898 367.77 107.808 368.97 107.808 370.37C107.808 373.17 108.148 375.21 108.828 376.49C109.528 377.75 110.438 378.38 111.558 378.38Z" fill="white"/>
    <path d="M216.117 452.204L212.723 448.16L206.128 453.694L205.086 452.453L203.492 437.812L205.607 436.038L213.243 445.139L215.242 443.461L216.515 444.978L214.516 446.655L217.91 450.7L216.117 452.204ZM206.854 450.499L211.45 446.643L207.883 442.391C207.549 441.993 207.164 441.519 206.73 440.97C206.298 440.393 205.93 439.892 205.626 439.468L205.534 439.545C205.646 440.052 205.744 440.557 205.827 441.061C205.911 441.566 205.993 442.084 206.075 442.616L206.854 450.499Z" fill="white"/>
    <path d="M223.869 451.965L213.229 426.823L214.607 425.666L225.248 450.808L223.869 451.965Z" fill="white"/>
    <path d="M229.508 440.968L228.563 439.842C228.74 437.813 228.885 435.995 228.998 434.386C229.11 432.778 229.142 431.354 229.095 430.114C229.034 428.86 228.893 427.79 228.673 426.905C228.439 426.004 228.072 425.255 227.57 424.658C226.863 423.815 226.055 423.318 225.145 423.168C224.236 423.017 223.314 423.334 222.379 424.118C221.766 424.632 221.347 425.284 221.122 426.074C220.884 426.848 220.756 427.66 220.739 428.51L218.752 428.337C218.799 427.148 219 426.066 219.356 425.089C219.698 424.097 220.352 423.195 221.317 422.386C222.681 421.241 224.087 420.74 225.537 420.881C226.974 421.007 228.239 421.721 229.332 423.023C229.91 423.712 230.342 424.538 230.627 425.5C230.914 426.434 231.105 427.501 231.199 428.701C231.295 429.874 231.316 431.175 231.262 432.604C231.21 434.005 231.127 435.524 231.012 437.16C231.385 436.795 231.773 436.418 232.176 436.027C232.579 435.636 232.972 435.28 233.355 434.959L237.607 431.392L238.976 433.023L229.508 440.968Z" fill="white"/>
    <path d="M245.966 427.628C244.48 428.875 242.77 429.187 240.837 428.564C238.904 427.94 236.903 426.395 234.833 423.929C232.763 421.462 231.602 419.238 231.35 417.257C231.097 415.276 231.714 413.662 233.2 412.415C234.671 411.18 236.36 410.86 238.267 411.452C240.174 412.045 242.163 413.575 244.232 416.042C246.302 418.508 247.476 420.747 247.755 422.759C248.033 424.771 247.437 426.394 245.966 427.628ZM244.693 426.111C245.122 425.751 245.409 425.315 245.553 424.803C245.699 424.262 245.69 423.643 245.523 422.947C245.36 422.223 245.025 421.42 244.52 420.539C244.003 419.641 243.294 418.657 242.394 417.584C241.494 416.512 240.654 415.65 239.873 415C239.092 414.35 238.373 413.896 237.714 413.64C237.057 413.355 236.456 413.246 235.911 413.312C235.381 413.365 234.902 413.571 234.473 413.931C234.044 414.291 233.749 414.734 233.59 415.26C233.43 415.785 233.426 416.402 233.577 417.111C233.73 417.792 234.059 418.573 234.564 419.455C235.069 420.336 235.772 421.313 236.672 422.386C238.471 424.531 240.043 425.875 241.387 426.418C242.733 426.934 243.835 426.831 244.693 426.111Z" fill="white"/>
    <path d="M252.355 421.797L251.41 420.671C251.587 418.643 251.732 416.824 251.844 415.215C251.957 413.607 251.989 412.183 251.941 410.944C251.881 409.689 251.74 408.619 251.519 407.734C251.286 406.833 250.918 406.084 250.417 405.487C249.71 404.644 248.902 404.148 247.992 403.997C247.082 403.846 246.16 404.163 245.226 404.948C244.613 405.462 244.194 406.114 243.969 406.903C243.731 407.677 243.603 408.489 243.585 409.34L241.599 409.166C241.646 407.978 241.847 406.895 242.202 405.918C242.545 404.926 243.198 404.025 244.164 403.215C245.527 402.071 246.934 401.569 248.384 401.71C249.821 401.836 251.086 402.55 252.178 403.852C252.757 404.542 253.189 405.367 253.474 406.329C253.761 407.263 253.952 408.33 254.045 409.531C254.141 410.703 254.162 412.004 254.108 413.433C254.057 414.834 253.974 416.353 253.859 417.99C254.231 417.625 254.619 417.247 255.023 416.856C255.426 416.466 255.819 416.11 256.202 415.788L260.454 412.221L261.823 413.853L252.355 421.797Z" fill="white"/>
    <path d="M268.812 408.458C267.326 409.705 265.617 410.016 263.684 409.393C261.751 408.77 259.75 407.225 257.68 404.758C255.61 402.291 254.449 400.067 254.196 398.086C253.944 396.105 254.56 394.491 256.047 393.244C257.517 392.01 259.206 391.689 261.114 392.282C263.021 392.875 265.009 394.404 267.079 396.871C269.149 399.338 270.323 401.577 270.601 403.589C270.879 405.6 270.283 407.223 268.812 408.458ZM267.54 406.941C267.969 406.581 268.255 406.145 268.399 405.632C268.546 405.091 268.536 404.473 268.37 403.777C268.206 403.053 267.872 402.25 267.367 401.368C266.849 400.471 266.141 399.486 265.241 398.414C264.341 397.341 263.5 396.48 262.72 395.829C261.939 395.179 261.219 394.726 260.56 394.469C259.904 394.185 259.303 394.075 258.758 394.141C258.228 394.194 257.748 394.401 257.319 394.761C256.89 395.121 256.596 395.563 256.437 396.089C256.277 396.614 256.273 397.232 256.424 397.94C256.577 398.621 256.906 399.402 257.411 400.284C257.916 401.166 258.618 402.143 259.518 403.215C261.318 405.36 262.89 406.704 264.233 407.248C265.58 407.763 266.682 407.661 267.54 406.941Z" fill="white"/>
    <path d="M302.535 453.83C301.953 454.318 301.366 454.707 300.772 454.996C300.208 455.287 299.649 455.508 299.096 455.658C298.559 455.796 298.033 455.885 297.518 455.925C297.006 455.937 296.518 455.915 296.055 455.861L295.933 453.848C296.734 453.933 297.568 453.899 298.433 453.748C299.313 453.583 300.182 453.141 301.04 452.421C301.485 452.049 301.834 451.625 302.088 451.15C302.345 450.647 302.497 450.128 302.544 449.593C302.591 449.058 302.525 448.512 302.347 447.957C302.168 447.402 301.867 446.872 301.442 446.366C300.594 445.355 299.648 444.804 298.606 444.713C297.563 444.622 296.567 444.975 295.617 445.772C295.112 446.196 294.739 446.639 294.5 447.101C294.276 447.549 294.064 448.106 293.864 448.77L292.313 448.975L286.876 441.515L294.207 435.363L295.576 436.995L289.899 441.758L293.153 446.429C293.351 445.95 293.582 445.508 293.844 445.105C294.106 444.702 294.46 444.315 294.904 443.942C295.532 443.415 296.199 443.012 296.905 442.733C297.611 442.454 298.331 442.332 299.066 442.368C299.789 442.389 300.509 442.594 301.227 442.983C301.948 443.344 302.643 443.923 303.311 444.72C303.98 445.517 304.433 446.337 304.672 447.181C304.91 448.026 304.979 448.855 304.88 449.67C304.767 450.469 304.509 451.234 304.104 451.965C303.702 452.668 303.179 453.29 302.535 453.83Z" fill="white"/>
    <path d="M311.665 451.965L301.024 426.823L302.403 425.666L313.044 450.808L311.665 451.965Z" fill="white"/>
    <path d="M317.303 440.968L316.359 439.842C316.536 437.813 316.681 435.995 316.793 434.386C316.906 432.778 316.938 431.354 316.89 430.114C316.83 428.86 316.689 427.79 316.468 426.905C316.235 426.004 315.867 425.255 315.366 424.657C314.659 423.815 313.851 423.318 312.941 423.168C312.031 423.017 311.109 423.334 310.175 424.118C309.562 424.632 309.143 425.284 308.918 426.074C308.68 426.848 308.552 427.66 308.534 428.51L306.548 428.336C306.595 427.148 306.796 426.066 307.151 425.089C307.494 424.096 308.147 423.195 309.113 422.386C310.476 421.241 311.883 420.74 313.333 420.881C314.77 421.007 316.035 421.721 317.127 423.023C317.706 423.712 318.138 424.538 318.423 425.5C318.71 426.434 318.901 427.501 318.994 428.701C319.09 429.874 319.111 431.175 319.057 432.604C319.006 434.005 318.923 435.523 318.808 437.16C319.18 436.795 319.568 436.418 319.972 436.027C320.375 435.636 320.768 435.28 321.151 434.959L325.403 431.391L326.772 433.023L317.303 440.968Z" fill="white"/>
    <path d="M333.761 427.628C332.275 428.875 330.566 429.187 328.633 428.564C326.7 427.94 324.698 426.395 322.629 423.929C320.559 421.462 319.398 419.238 319.145 417.257C318.893 415.276 319.509 413.662 320.996 412.415C322.466 411.18 324.155 410.86 326.063 411.452C327.97 412.045 329.958 413.575 332.028 416.042C334.098 418.508 335.272 420.747 335.55 422.759C335.828 424.771 335.232 426.394 333.761 427.628ZM332.489 426.111C332.918 425.751 333.204 425.315 333.348 424.803C333.495 424.262 333.485 423.643 333.319 422.947C333.155 422.223 332.821 421.42 332.316 420.539C331.798 419.641 331.089 418.657 330.19 417.584C329.29 416.512 328.449 415.65 327.669 415C326.888 414.35 326.168 413.896 325.509 413.64C324.853 413.355 324.252 413.246 323.707 413.312C323.177 413.365 322.697 413.571 322.268 413.931C321.839 414.291 321.545 414.734 321.385 415.26C321.226 415.785 321.222 416.402 321.373 417.111C321.526 417.792 321.855 418.573 322.36 419.455C322.865 420.336 323.567 421.313 324.467 422.386C326.267 424.531 327.839 425.875 329.182 426.418C330.529 426.934 331.631 426.831 332.489 426.111Z" fill="white"/>
    <path d="M340.15 421.797L339.205 420.671C339.383 418.643 339.528 416.824 339.64 415.215C339.752 413.607 339.785 412.183 339.737 410.944C339.676 409.689 339.536 408.619 339.315 407.734C339.081 406.833 338.714 406.084 338.213 405.487C337.506 404.644 336.697 404.148 335.788 403.997C334.878 403.846 333.956 404.163 333.021 404.947C332.409 405.462 331.99 406.114 331.764 406.903C331.526 407.677 331.398 408.489 331.381 409.34L329.394 409.166C329.442 407.977 329.643 406.895 329.998 405.918C330.34 404.926 330.994 404.025 331.959 403.215C333.323 402.071 334.73 401.569 336.179 401.71C337.616 401.836 338.881 402.55 339.974 403.852C340.553 404.542 340.984 405.367 341.269 406.329C341.557 407.263 341.747 408.33 341.841 409.531C341.937 410.703 341.958 412.004 341.904 413.433C341.852 414.834 341.769 416.353 341.654 417.99C342.027 417.625 342.415 417.247 342.818 416.856C343.222 416.466 343.615 416.11 343.998 415.788L348.249 412.221L349.618 413.853L340.15 421.797Z" fill="white"/>
    <path d="M356.608 408.458C355.122 409.705 353.412 410.016 351.479 409.393C349.547 408.77 347.545 407.225 345.475 404.758C343.406 402.291 342.244 400.067 341.992 398.086C341.739 396.105 342.356 394.491 343.842 393.244C345.313 392.01 347.002 391.689 348.909 392.282C350.816 392.875 352.805 394.404 354.875 396.871C356.945 399.338 358.119 401.577 358.397 403.589C358.675 405.6 358.079 407.223 356.608 408.458ZM355.335 406.941C355.764 406.581 356.051 406.145 356.195 405.632C356.342 405.091 356.332 404.473 356.166 403.777C356.002 403.053 355.668 402.25 355.163 401.368C354.645 400.471 353.936 399.486 353.036 398.414C352.136 397.341 351.296 396.48 350.515 395.829C349.735 395.179 349.015 394.726 348.356 394.469C347.699 394.185 347.099 394.075 346.553 394.141C346.023 394.194 345.544 394.401 345.115 394.761C344.686 395.121 344.392 395.563 344.232 396.089C344.073 396.614 344.068 397.232 344.219 397.94C344.373 398.621 344.702 399.402 345.207 400.284C345.712 401.166 346.414 402.143 347.314 403.215C349.114 405.36 350.685 406.704 352.029 407.248C353.375 407.763 354.477 407.661 355.335 406.941Z" fill="white"/>
    <path d="M391.317 453.174C390.596 453.779 389.808 454.192 388.951 454.415C388.094 454.639 387.191 454.652 386.243 454.455C385.297 454.231 384.328 453.791 383.335 453.136C382.328 452.466 381.33 451.541 380.341 450.361C379.106 448.891 378.212 447.513 377.657 446.23C377.089 444.931 376.796 443.741 376.777 442.661C376.745 441.565 376.936 440.595 377.351 439.751C377.768 438.879 378.344 438.134 379.079 437.517C379.876 436.849 380.686 436.43 381.51 436.261C382.337 436.063 383.143 436.013 383.93 436.11L383.856 438.169C383.254 438.074 382.655 438.107 382.059 438.268C381.465 438.4 380.939 438.659 380.479 439.045C379.973 439.469 379.581 439.981 379.301 440.582C379.021 441.182 378.911 441.875 378.97 442.661C379.029 443.447 379.286 444.328 379.74 445.305C380.181 446.266 380.882 447.335 381.844 448.513C381.828 447.56 381.991 446.666 382.334 445.83C382.664 444.979 383.128 444.302 383.725 443.801C384.997 442.734 386.323 442.261 387.704 442.382C389.1 442.489 390.434 443.302 391.707 444.819C392.298 445.523 392.723 446.263 392.982 447.038C393.228 447.798 393.325 448.552 393.274 449.3C393.223 450.048 393.033 450.755 392.705 451.422C392.377 452.089 391.914 452.673 391.317 453.174ZM390.063 451.681C390.431 451.372 390.704 451.013 390.881 450.602C391.059 450.192 391.147 449.752 391.146 449.284C391.131 448.8 391.025 448.315 390.826 447.829C390.63 447.315 390.326 446.813 389.914 446.323C389.104 445.357 388.246 444.785 387.339 444.607C386.432 444.428 385.519 444.724 384.599 445.496C384.124 445.894 383.74 446.478 383.445 447.247C383.138 448.001 383.044 448.916 383.163 449.991C384.494 451.328 385.742 452.147 386.908 452.448C388.077 452.721 389.129 452.465 390.063 451.681Z" fill="white"/>
    <path d="M399.665 451.965L389.024 426.823L390.403 425.666L401.044 450.808L399.665 451.965Z" fill="white"/>
    <path d="M405.303 440.968L404.358 439.842C404.536 437.813 404.681 435.995 404.793 434.386C404.905 432.778 404.938 431.354 404.89 430.115C404.829 428.86 404.689 427.79 404.468 426.905C404.235 426.004 403.867 425.255 403.366 424.658C402.659 423.815 401.85 423.318 400.941 423.168C400.031 423.017 399.109 423.334 398.175 424.118C397.562 424.633 397.143 425.284 396.917 426.074C396.679 426.848 396.552 427.66 396.534 428.51L394.547 428.337C394.595 427.148 394.796 426.066 395.151 425.089C395.493 424.097 396.147 423.196 397.112 422.386C398.476 421.242 399.883 420.74 401.332 420.881C402.77 421.007 404.034 421.721 405.127 423.023C405.706 423.712 406.137 424.538 406.422 425.5C406.71 426.434 406.9 427.501 406.994 428.702C407.09 429.874 407.111 431.175 407.057 432.604C407.006 434.005 406.922 435.524 406.808 437.16C407.18 436.795 407.568 436.418 407.971 436.027C408.375 435.637 408.768 435.281 409.151 434.959L413.402 431.392L414.772 433.023L405.303 440.968Z" fill="white"/>
    <path d="M421.761 427.628C420.275 428.875 418.565 429.187 416.633 428.564C414.7 427.94 412.698 426.395 410.628 423.929C408.559 421.462 407.398 419.238 407.145 417.257C406.892 415.276 407.509 413.662 408.995 412.415C410.466 411.181 412.155 410.86 414.062 411.453C415.97 412.045 417.958 413.575 420.028 416.042C422.098 418.508 423.272 420.748 423.55 422.759C423.828 424.771 423.232 426.394 421.761 427.628ZM420.488 426.112C420.917 425.752 421.204 425.315 421.348 424.803C421.495 424.262 421.485 423.643 421.319 422.948C421.155 422.223 420.821 421.42 420.316 420.539C419.798 419.642 419.089 418.657 418.189 417.584C417.289 416.512 416.449 415.651 415.668 415C414.888 414.35 414.168 413.896 413.509 413.64C412.852 413.356 412.252 413.246 411.706 413.312C411.176 413.365 410.697 413.572 410.268 413.931C409.839 414.291 409.545 414.734 409.385 415.26C409.226 415.785 409.221 416.402 409.372 417.111C409.526 417.792 409.855 418.573 410.36 419.455C410.865 420.336 411.567 421.314 412.467 422.386C414.267 424.531 415.839 425.875 417.182 426.419C418.528 426.934 419.63 426.832 420.488 426.112Z" fill="white"/>
    <path d="M428.15 421.798L427.205 420.671C427.383 418.643 427.527 416.824 427.64 415.216C427.752 413.607 427.784 412.183 427.737 410.944C427.676 409.689 427.535 408.619 427.315 407.734C427.081 406.834 426.714 406.085 426.212 405.487C425.505 404.644 424.697 404.148 423.787 403.997C422.878 403.847 421.956 404.163 421.021 404.948C420.408 405.462 419.989 406.114 419.764 406.903C419.526 407.677 419.398 408.49 419.381 409.34L417.394 409.166C417.441 407.978 417.643 406.895 417.998 405.918C418.34 404.926 418.994 404.025 419.959 403.215C421.323 402.071 422.729 401.569 424.179 401.71C425.616 401.836 426.881 402.55 427.974 403.852C428.552 404.542 428.984 405.367 429.269 406.329C429.556 407.263 429.747 408.33 429.841 409.531C429.937 410.703 429.958 412.004 429.904 413.433C429.852 414.834 429.769 416.353 429.654 417.99C430.027 417.625 430.415 417.247 430.818 416.856C431.221 416.466 431.615 416.11 431.998 415.788L436.249 412.221L437.618 413.853L428.15 421.798Z" fill="white"/>
    <path d="M444.608 408.458C443.122 409.705 441.412 410.017 439.479 409.393C437.546 408.77 435.545 407.225 433.475 404.758C431.405 402.291 430.244 400.068 429.992 398.086C429.739 396.105 430.356 394.491 431.842 393.244C433.313 392.01 435.002 391.689 436.909 392.282C438.816 392.875 440.805 394.404 442.875 396.871C444.944 399.338 446.118 401.577 446.397 403.589C446.675 405.601 446.079 407.224 444.608 408.458ZM443.335 406.941C443.764 406.581 444.051 406.145 444.195 405.632C444.342 405.091 444.332 404.473 444.166 403.777C444.002 403.053 443.667 402.25 443.162 401.368C442.645 400.471 441.936 399.486 441.036 398.414C440.136 397.341 439.296 396.48 438.515 395.83C437.734 395.179 437.015 394.726 436.356 394.469C435.699 394.185 435.098 394.076 434.553 394.141C434.023 394.194 433.544 394.401 433.115 394.761C432.686 395.121 432.391 395.564 432.232 396.089C432.072 396.615 432.068 397.232 432.219 397.941C432.372 398.621 432.702 399.402 433.206 400.284C433.711 401.166 434.414 402.143 435.314 403.215C437.113 405.36 438.685 406.705 440.029 407.248C441.375 407.763 442.477 407.661 443.335 406.941Z" fill="white"/>
    <path d="M476.994 454.653C475.898 453.223 474.96 451.856 474.18 450.553C473.4 449.25 472.74 447.95 472.2 446.653C471.663 445.329 471.242 443.972 470.938 442.582C470.649 441.18 470.44 439.671 470.312 438.056L463.004 444.188L461.635 442.556L471.08 434.63L472.063 435.803C472.116 437.638 472.29 439.293 472.587 440.767C472.899 442.228 473.338 443.623 473.904 444.95C474.456 446.261 475.151 447.571 475.987 448.88C476.826 450.16 477.813 451.538 478.947 453.014L476.994 454.653Z" fill="white"/>
    <path d="M487.665 451.965L477.024 426.823L478.403 425.666L489.044 450.808L487.665 451.965Z" fill="white"/>
    <path d="M493.303 440.968L492.358 439.842C492.536 437.813 492.681 435.995 492.793 434.386C492.906 432.778 492.938 431.354 492.89 430.115C492.83 428.86 492.689 427.79 492.468 426.905C492.235 426.004 491.867 425.255 491.366 424.658C490.659 423.815 489.85 423.318 488.941 423.168C488.031 423.017 487.109 423.334 486.175 424.118C485.562 424.633 485.143 425.284 484.918 426.074C484.679 426.848 484.552 427.66 484.534 428.51L482.548 428.337C482.595 427.148 482.796 426.066 483.151 425.089C483.493 424.097 484.147 423.196 485.112 422.386C486.476 421.242 487.883 420.74 489.333 420.881C490.77 421.007 492.035 421.721 493.127 423.023C493.706 423.712 494.137 424.538 494.422 425.5C494.71 426.434 494.9 427.501 494.994 428.702C495.09 429.874 495.111 431.175 495.057 432.604C495.006 434.005 494.922 435.524 494.808 437.16C495.18 436.795 495.568 436.418 495.972 436.027C496.375 435.637 496.768 435.281 497.151 434.959L501.403 431.392L502.772 433.023L493.303 440.968Z" fill="white"/>
    <path d="M509.761 427.628C508.275 428.875 506.566 429.187 504.633 428.564C502.7 427.94 500.698 426.395 498.629 423.929C496.559 421.462 495.398 419.238 495.145 417.257C494.893 415.276 495.509 413.662 496.995 412.415C498.466 411.181 500.155 410.86 502.062 411.453C503.97 412.045 505.958 413.575 508.028 416.042C510.098 418.508 511.272 420.748 511.55 422.759C511.828 424.771 511.232 426.394 509.761 427.628ZM508.488 426.112C508.917 425.752 509.204 425.315 509.348 424.803C509.495 424.262 509.485 423.643 509.319 422.948C509.155 422.223 508.821 421.42 508.316 420.539C507.798 419.642 507.089 418.657 506.189 417.584C505.29 416.512 504.449 415.651 503.669 415C502.888 414.35 502.168 413.896 501.509 413.64C500.853 413.356 500.252 413.246 499.706 413.312C499.177 413.365 498.697 413.572 498.268 413.931C497.839 414.291 497.545 414.734 497.385 415.26C497.226 415.785 497.222 416.402 497.372 417.111C497.526 417.792 497.855 418.573 498.36 419.455C498.865 420.336 499.567 421.314 500.467 422.386C502.267 424.531 503.839 425.875 505.182 426.419C506.528 426.934 507.631 426.832 508.488 426.112Z" fill="white"/>
    <path d="M516.15 421.798L515.205 420.671C515.383 418.643 515.528 416.824 515.64 415.216C515.752 413.607 515.785 412.183 515.737 410.944C515.676 409.689 515.536 408.619 515.315 407.734C515.081 406.834 514.714 406.085 514.213 405.487C513.505 404.644 512.697 404.148 511.788 403.997C510.878 403.847 509.956 404.163 509.021 404.948C508.409 405.462 507.989 406.114 507.764 406.903C507.526 407.677 507.398 408.49 507.381 409.34L505.394 409.166C505.441 407.978 505.643 406.895 505.998 405.918C506.34 404.926 506.994 404.025 507.959 403.215C509.323 402.071 510.729 401.569 512.179 401.71C513.616 401.836 514.881 402.55 515.974 403.852C516.552 404.542 516.984 405.367 517.269 406.329C517.557 407.263 517.747 408.33 517.841 409.531C517.937 410.703 517.958 412.004 517.904 413.433C517.852 414.834 517.769 416.353 517.654 417.99C518.027 417.625 518.415 417.247 518.818 416.856C519.222 416.466 519.615 416.11 519.998 415.788L524.249 412.221L525.618 413.853L516.15 421.798Z" fill="white"/>
    <path d="M532.608 408.458C531.122 409.705 529.412 410.017 527.479 409.393C525.546 408.77 523.545 407.225 521.475 404.758C519.405 402.291 518.244 400.068 517.992 398.086C517.739 396.105 518.356 394.491 519.842 393.244C521.313 392.01 523.002 391.689 524.909 392.282C526.816 392.875 528.805 394.404 530.875 396.871C532.944 399.338 534.118 401.577 534.397 403.589C534.675 405.601 534.079 407.224 532.608 408.458ZM531.335 406.941C531.764 406.581 532.051 406.145 532.195 405.632C532.342 405.091 532.332 404.473 532.166 403.777C532.002 403.053 531.668 402.25 531.163 401.368C530.645 400.471 529.936 399.486 529.036 398.414C528.136 397.341 527.296 396.48 526.515 395.83C525.735 395.179 525.015 394.726 524.356 394.469C523.699 394.185 523.098 394.076 522.553 394.141C522.023 394.194 521.544 394.401 521.115 394.761C520.686 395.121 520.392 395.564 520.232 396.089C520.073 396.615 520.068 397.232 520.219 397.941C520.373 398.621 520.702 399.402 521.207 400.284C521.711 401.166 522.414 402.143 523.314 403.215C525.114 405.36 526.685 406.705 528.029 407.248C529.375 407.763 530.477 407.661 531.335 406.941Z" fill="white"/>
    <path d="M566.903 453.521C566.213 454.1 565.486 454.54 564.722 454.842C563.972 455.132 563.235 455.28 562.511 455.288C561.788 455.267 561.099 455.115 560.442 454.83C559.786 454.545 559.213 454.112 558.725 453.53C558.326 453.055 558.037 452.554 557.856 452.027C557.677 451.472 557.575 450.931 557.55 450.403C557.528 449.848 557.575 449.312 557.691 448.797C557.809 448.254 557.968 447.742 558.166 447.263L558.089 447.171C557.231 447.238 556.37 447.177 555.507 446.988C554.63 446.783 553.864 446.29 553.209 445.509C552.733 444.942 552.41 444.339 552.238 443.699C552.067 443.06 552.031 442.425 552.128 441.794C552.213 441.149 552.431 440.522 552.783 439.914C553.134 439.306 553.608 438.751 554.206 438.25C554.849 437.71 555.507 437.327 556.18 437.102C556.84 436.862 557.494 436.77 558.142 436.827C558.793 436.855 559.415 437.037 560.011 437.373C560.608 437.681 561.145 438.119 561.621 438.686C561.942 439.069 562.182 439.494 562.339 439.962C562.513 440.417 562.628 440.882 562.686 441.355C562.759 441.816 562.776 442.272 562.737 442.723C562.713 443.161 562.656 443.56 562.568 443.922L562.645 444.014C563.121 443.927 563.615 443.878 564.127 443.866C564.627 443.839 565.12 443.882 565.607 443.996C566.096 444.081 566.57 444.258 567.03 444.525C567.504 444.779 567.947 445.152 568.359 445.642C568.821 446.194 569.137 446.803 569.306 447.471C569.475 448.139 569.5 448.822 569.382 449.522C569.264 450.221 568.997 450.915 568.582 451.603C568.167 452.29 567.607 452.93 566.903 453.521ZM560.995 444.38C561.112 443.524 561.095 442.742 560.944 442.033C560.809 441.312 560.516 440.683 560.066 440.147C559.449 439.411 558.713 438.985 557.857 438.867C556.988 438.735 556.148 439.009 555.336 439.69C554.647 440.269 554.26 440.959 554.175 441.761C554.091 442.562 554.351 443.323 554.955 444.043C555.328 444.488 555.741 444.794 556.195 444.961C556.636 445.113 557.113 445.183 557.625 445.171C558.152 445.147 558.699 445.067 559.264 444.931C559.832 444.768 560.409 444.584 560.995 444.38ZM565.772 452.081C566.63 451.361 567.12 450.545 567.243 449.633C567.381 448.708 567.128 447.862 566.485 447.096C566.087 446.621 565.639 446.305 565.141 446.148C564.644 445.991 564.109 445.944 563.535 446.008C562.949 446.056 562.327 446.186 561.67 446.398C561.015 446.582 560.337 446.786 559.636 447.008C559.388 447.895 559.29 448.774 559.342 449.644C559.396 450.487 559.706 451.245 560.271 451.919C560.618 452.333 561.01 452.644 561.446 452.852C561.897 453.048 562.37 453.16 562.864 453.189C563.361 453.19 563.859 453.099 564.358 452.915C564.856 452.732 565.328 452.454 565.772 452.081Z" fill="white"/>
    <path d="M575.664 451.965L565.024 426.823L566.403 425.666L577.043 450.808L575.664 451.965Z" fill="white"/>
    <path d="M581.303 440.968L580.358 439.842C580.536 437.813 580.68 435.995 580.793 434.386C580.905 432.777 580.937 431.354 580.89 430.114C580.829 428.86 580.688 427.79 580.468 426.905C580.234 426.004 579.867 425.255 579.365 424.657C578.658 423.815 577.85 423.318 576.941 423.168C576.031 423.017 575.109 423.334 574.174 424.118C573.561 424.632 573.142 425.284 572.917 426.074C572.679 426.848 572.551 427.66 572.534 428.51L570.547 428.336C570.594 427.148 570.796 426.065 571.151 425.089C571.493 424.096 572.147 423.195 573.112 422.385C574.476 421.241 575.882 420.74 577.332 420.881C578.769 421.007 580.034 421.721 581.127 423.023C581.705 423.712 582.137 424.538 582.422 425.5C582.709 426.433 582.9 427.501 582.994 428.701C583.09 429.874 583.111 431.175 583.057 432.604C583.005 434.005 582.922 435.523 582.807 437.16C583.18 436.795 583.568 436.417 583.971 436.027C584.374 435.636 584.768 435.28 585.151 434.959L589.402 431.391L590.771 433.023L581.303 440.968Z" fill="white"/>
    <path d="M597.761 427.628C596.275 428.875 594.565 429.187 592.632 428.564C590.699 427.94 588.698 426.395 586.628 423.928C584.558 421.462 583.397 419.238 583.145 417.257C582.892 415.276 583.509 413.662 584.995 412.414C586.466 411.18 588.155 410.86 590.062 411.452C591.969 412.045 593.958 413.575 596.028 416.041C598.097 418.508 599.271 420.747 599.55 422.759C599.828 424.771 599.232 426.394 597.761 427.628ZM596.488 426.111C596.917 425.751 597.204 425.315 597.348 424.802C597.495 424.262 597.485 423.643 597.319 422.947C597.155 422.223 596.82 421.42 596.316 420.538C595.798 419.641 595.089 418.657 594.189 417.584C593.289 416.512 592.449 415.65 591.668 415C590.888 414.35 590.168 413.896 589.509 413.64C588.852 413.355 588.251 413.246 587.706 413.312C587.176 413.365 586.697 413.571 586.268 413.931C585.839 414.291 585.545 414.734 585.385 415.259C585.225 415.785 585.221 416.402 585.372 417.111C585.525 417.792 585.855 418.573 586.36 419.454C586.864 420.336 587.567 421.313 588.467 422.386C590.267 424.531 591.838 425.875 593.182 426.418C594.528 426.934 595.63 426.831 596.488 426.111Z" fill="white"/>
    <path d="M604.15 421.797L603.205 420.671C603.382 418.643 603.527 416.824 603.639 415.215C603.752 413.607 603.784 412.183 603.736 410.944C603.676 409.689 603.535 408.619 603.315 407.734C603.081 406.833 602.714 406.084 602.212 405.487C601.505 404.644 600.697 404.148 599.787 403.997C598.878 403.846 597.956 404.163 597.021 404.947C596.408 405.462 595.989 406.114 595.764 406.903C595.526 407.677 595.398 408.489 595.38 409.34L593.394 409.166C593.441 407.977 593.642 406.895 593.997 405.918C594.34 404.926 594.994 404.025 595.959 403.215C597.322 402.071 598.729 401.569 600.179 401.71C601.616 401.836 602.881 402.55 603.974 403.852C604.552 404.542 604.984 405.367 605.269 406.329C605.556 407.263 605.747 408.33 605.84 409.531C605.937 410.703 605.958 412.004 605.904 413.433C605.852 414.834 605.769 416.353 605.654 417.99C606.027 417.625 606.415 417.247 606.818 416.856C607.221 416.466 607.614 416.11 607.997 415.788L612.249 412.221L613.618 413.852L604.15 421.797Z" fill="white"/>
    <path d="M620.607 408.458C619.121 409.705 617.412 410.016 615.479 409.393C613.546 408.77 611.545 407.225 609.475 404.758C607.405 402.291 606.244 400.067 605.991 398.086C605.739 396.105 606.356 394.491 607.842 393.244C609.313 392.01 611.002 391.689 612.909 392.282C614.816 392.874 616.804 394.404 618.874 396.871C620.944 399.338 622.118 401.577 622.396 403.589C622.675 405.6 622.078 407.223 620.607 408.458ZM619.335 406.941C619.764 406.581 620.05 406.144 620.195 405.632C620.341 405.091 620.331 404.473 620.165 403.777C620.001 403.053 619.667 402.25 619.162 401.368C618.644 400.471 617.936 399.486 617.036 398.414C616.136 397.341 615.296 396.48 614.515 395.829C613.734 395.179 613.014 394.726 612.355 394.469C611.699 394.185 611.098 394.075 610.553 394.141C610.023 394.194 609.543 394.401 609.114 394.761C608.685 395.121 608.391 395.563 608.232 396.089C608.072 396.614 608.068 397.231 608.219 397.94C608.372 398.621 608.701 399.402 609.206 400.284C609.711 401.166 610.413 402.143 611.313 403.215C613.113 405.36 614.685 406.704 616.029 407.248C617.375 407.763 618.477 407.661 619.335 406.941Z" fill="white"/>
    <path d="M648.349 446.411C648.839 445.999 649.224 445.415 649.503 444.659C649.798 443.89 649.893 442.961 649.789 441.873C648.458 440.536 647.209 439.731 646.04 439.458C644.871 439.186 643.82 439.442 642.885 440.226C642.533 440.522 642.26 440.881 642.067 441.304C641.889 441.714 641.807 442.162 641.822 442.646C641.823 443.114 641.922 443.605 642.119 444.12C642.33 444.621 642.635 445.109 643.034 445.584C643.844 446.549 644.702 447.121 645.61 447.3C646.517 447.478 647.43 447.182 648.349 446.411ZM653.869 454.389C653.088 455.045 652.276 455.478 651.434 455.688C650.608 455.886 649.809 455.929 649.038 455.819L649.092 453.737C649.694 453.832 650.292 453.814 650.886 453.681C651.495 453.536 652.029 453.27 652.489 452.884C653.01 452.447 653.41 451.929 653.69 451.328C653.969 450.728 654.08 450.035 654.021 449.249C653.949 448.448 653.686 447.559 653.232 446.582C652.778 445.606 652.063 444.521 651.089 443.329C651.118 444.296 650.967 445.206 650.637 446.057C650.307 446.909 649.836 447.591 649.223 448.106C647.951 449.173 646.625 449.646 645.245 449.525C643.864 449.404 642.537 448.585 641.264 447.069C640.673 446.364 640.254 445.632 640.009 444.872C639.75 444.097 639.639 443.342 639.674 442.607C639.726 441.859 639.915 441.151 640.243 440.484C640.587 439.805 641.05 439.221 641.632 438.732C642.352 438.128 643.14 437.714 643.998 437.491C644.87 437.255 645.779 437.249 646.725 437.474C647.673 437.671 648.642 438.11 649.633 438.793C650.626 439.448 651.618 440.365 652.608 441.545C653.842 443.016 654.743 444.401 655.311 445.7C655.866 446.983 656.159 448.173 656.191 449.269C656.21 450.349 656.011 451.326 655.594 452.198C655.179 453.042 654.604 453.772 653.869 454.389Z" fill="white"/>
    <path d="M663.665 451.965L653.024 426.823L654.403 425.666L665.044 450.808L663.665 451.965Z" fill="white"/>
    <path d="M669.304 440.968L668.359 439.842C668.536 437.813 668.681 435.995 668.793 434.386C668.906 432.778 668.938 431.354 668.89 430.115C668.83 428.86 668.689 427.79 668.468 426.905C668.235 426.004 667.867 425.255 667.366 424.658C666.659 423.815 665.851 423.318 664.941 423.168C664.031 423.017 663.109 423.334 662.175 424.118C661.562 424.633 661.143 425.284 660.918 426.074C660.68 426.848 660.552 427.66 660.534 428.51L658.548 428.337C658.595 427.148 658.796 426.066 659.151 425.089C659.494 424.097 660.147 423.196 661.113 422.386C662.476 421.242 663.883 420.74 665.333 420.881C666.77 421.007 668.035 421.721 669.127 423.023C669.706 423.712 670.138 424.538 670.423 425.5C670.71 426.434 670.901 427.501 670.994 428.702C671.09 429.874 671.111 431.175 671.057 432.604C671.006 434.005 670.923 435.524 670.808 437.16C671.18 436.795 671.568 436.418 671.972 436.027C672.375 435.637 672.768 435.281 673.151 434.959L677.403 431.392L678.772 433.023L669.304 440.968Z" fill="white"/>
    <path d="M685.761 427.628C684.275 428.875 682.566 429.187 680.633 428.564C678.7 427.94 676.698 426.395 674.629 423.929C672.559 421.462 671.398 419.238 671.145 417.257C670.893 415.276 671.509 413.662 672.996 412.415C674.466 411.181 676.155 410.86 678.063 411.453C679.97 412.045 681.958 413.575 684.028 416.042C686.098 418.508 687.272 420.748 687.55 422.759C687.828 424.771 687.232 426.394 685.761 427.628ZM684.489 426.112C684.918 425.752 685.204 425.315 685.348 424.803C685.495 424.262 685.485 423.644 685.319 422.948C685.155 422.223 684.821 421.42 684.316 420.539C683.798 419.642 683.089 418.657 682.19 417.584C681.29 416.512 680.449 415.651 679.669 415C678.888 414.35 678.168 413.897 677.509 413.64C676.853 413.356 676.252 413.246 675.707 413.312C675.177 413.365 674.697 413.572 674.268 413.932C673.839 414.291 673.545 414.734 673.386 415.26C673.226 415.785 673.222 416.402 673.373 417.111C673.526 417.792 673.855 418.573 674.36 419.455C674.865 420.336 675.567 421.314 676.467 422.386C678.267 424.531 679.839 425.875 681.182 426.419C682.529 426.934 683.631 426.832 684.489 426.112Z" fill="white"/>
    <path d="M692.15 421.798L691.205 420.671C691.383 418.643 691.528 416.824 691.64 415.216C691.752 413.607 691.785 412.183 691.737 410.944C691.676 409.689 691.536 408.619 691.315 407.734C691.081 406.834 690.714 406.085 690.213 405.487C689.506 404.644 688.697 404.148 687.788 403.997C686.878 403.847 685.956 404.163 685.021 404.948C684.409 405.462 683.99 406.114 683.764 406.903C683.526 407.677 683.398 408.49 683.381 409.34L681.394 409.166C681.442 407.978 681.643 406.895 681.998 405.918C682.34 404.926 682.994 404.025 683.959 403.215C685.323 402.071 686.73 401.569 688.179 401.71C689.616 401.836 690.881 402.55 691.974 403.852C692.553 404.542 692.984 405.368 693.269 406.329C693.557 407.263 693.747 408.33 693.841 409.531C693.937 410.703 693.958 412.004 693.904 413.433C693.852 414.834 693.769 416.353 693.655 417.99C694.027 417.625 694.415 417.247 694.818 416.857C695.222 416.466 695.615 416.11 695.998 415.789L700.249 412.221L701.618 413.853L692.15 421.798Z" fill="white"/>
    <path d="M708.608 408.458C707.122 409.705 705.412 410.017 703.479 409.393C701.547 408.77 699.545 407.225 697.475 404.758C695.406 402.291 694.244 400.068 693.992 398.086C693.739 396.105 694.356 394.491 695.842 393.244C697.313 392.01 699.002 391.689 700.909 392.282C702.816 392.875 704.805 394.404 706.875 396.871C708.945 399.338 710.119 401.577 710.397 403.589C710.675 405.601 710.079 407.224 708.608 408.458ZM707.335 406.941C707.764 406.581 708.051 406.145 708.195 405.632C708.342 405.091 708.332 404.473 708.166 403.777C708.002 403.053 707.668 402.25 707.163 401.368C706.645 400.471 705.936 399.486 705.036 398.414C704.136 397.341 703.296 396.48 702.515 395.83C701.735 395.179 701.015 394.726 700.356 394.469C699.699 394.185 699.099 394.076 698.553 394.141C698.023 394.194 697.544 394.401 697.115 394.761C696.686 395.121 696.392 395.564 696.232 396.089C696.073 396.615 696.068 397.232 696.219 397.941C696.373 398.621 696.702 399.402 697.207 400.284C697.712 401.166 698.414 402.143 699.314 403.215C701.114 405.36 702.685 406.705 704.029 407.248C705.375 407.763 706.477 407.661 707.335 406.941Z" fill="white"/>
    <path d="M738.742 461.042L737.43 459.48L740.786 456.664L731.722 445.863L729.057 448.1L728.034 446.882C728.606 446.194 729.066 445.56 729.415 444.98C729.766 444.372 730.038 443.778 730.231 443.198L731.678 441.984L742.67 455.083L745.704 452.537L747.015 454.1L738.742 461.042Z" fill="white"/>
    <path d="M754.303 448.455C752.817 449.702 751.108 450.013 749.175 449.39C747.242 448.767 745.24 447.222 743.171 444.755C741.101 442.288 739.94 440.064 739.687 438.083C739.435 436.102 740.051 434.488 741.537 433.241C743.008 432.007 744.697 431.686 746.605 432.279C748.512 432.872 750.5 434.401 752.57 436.868C754.64 439.335 755.814 441.574 756.092 443.586C756.37 445.597 755.774 447.22 754.303 448.455ZM753.031 446.938C753.46 446.578 753.746 446.142 753.89 445.629C754.037 445.088 754.027 444.47 753.861 443.774C753.697 443.05 753.363 442.247 752.858 441.365C752.34 440.468 751.631 439.483 750.731 438.411C749.832 437.338 748.991 436.477 748.211 435.826C747.43 435.176 746.71 434.723 746.051 434.466C745.395 434.182 744.794 434.072 744.249 434.138C743.719 434.191 743.239 434.398 742.81 434.758C742.381 435.118 742.087 435.56 741.927 436.086C741.768 436.611 741.764 437.229 741.914 437.937C742.068 438.618 742.397 439.399 742.902 440.281C743.407 441.163 744.109 442.14 745.009 443.212C746.809 445.357 748.381 446.701 749.724 447.245C751.07 447.76 752.173 447.658 753.031 446.938Z" fill="white"/>
    <path d="M763.088 446.879L752.447 421.737L753.826 420.58L764.467 445.722L763.088 446.879Z" fill="white"/>
    <path d="M768.727 435.882L767.782 434.756C767.959 432.727 768.104 430.909 768.216 429.3C768.329 427.692 768.361 426.268 768.313 425.028C768.253 423.774 768.112 422.704 767.891 421.819C767.658 420.918 767.29 420.169 766.789 419.571C766.082 418.729 765.274 418.232 764.364 418.082C763.455 417.931 762.532 418.248 761.598 419.032C760.985 419.546 760.566 420.198 760.341 420.988C760.103 421.762 759.975 422.574 759.957 423.424L757.971 423.25C758.018 422.062 758.219 420.98 758.574 420.003C758.917 419.011 759.57 418.109 760.536 417.3C761.899 416.155 763.306 415.654 764.756 415.795C766.193 415.921 767.458 416.635 768.55 417.937C769.129 418.626 769.561 419.452 769.846 420.414C770.133 421.348 770.324 422.415 770.417 423.615C770.513 424.788 770.535 426.089 770.48 427.518C770.429 428.919 770.346 430.437 770.231 432.074C770.604 431.709 770.991 431.332 771.395 430.941C771.798 430.55 772.191 430.194 772.574 429.873L776.826 426.305L778.195 427.937L768.727 435.882Z" fill="white"/>
    <path d="M785.184 422.542C783.698 423.789 781.989 424.101 780.056 423.478C778.123 422.854 776.122 421.309 774.052 418.843C771.982 416.376 770.821 414.152 770.568 412.171C770.316 410.19 770.933 408.576 772.419 407.329C773.889 406.094 775.578 405.774 777.486 406.366C779.393 406.959 781.381 408.489 783.451 410.956C785.521 413.422 786.695 415.661 786.973 417.673C787.251 419.685 786.655 421.308 785.184 422.542ZM783.912 421.025C784.341 420.665 784.627 420.229 784.771 419.717C784.918 419.176 784.908 418.557 784.742 417.861C784.578 417.137 784.244 416.334 783.739 415.453C783.221 414.555 782.513 413.571 781.613 412.498C780.713 411.426 779.872 410.564 779.092 409.914C778.311 409.264 777.591 408.81 776.932 408.554C776.276 408.269 775.675 408.16 775.13 408.226C774.6 408.279 774.12 408.485 773.691 408.845C773.262 409.205 772.968 409.648 772.809 410.174C772.649 410.699 772.645 411.316 772.796 412.025C772.949 412.706 773.278 413.487 773.783 414.369C774.288 415.25 774.99 416.227 775.89 417.3C777.69 419.445 779.262 420.789 780.606 421.332C781.952 421.848 783.054 421.745 783.912 421.025Z" fill="white"/>
    <path d="M791.573 416.711L790.628 415.585C790.806 413.557 790.951 411.738 791.063 410.129C791.175 408.521 791.208 407.097 791.16 405.858C791.099 404.603 790.959 403.533 790.738 402.648C790.505 401.747 790.137 400.998 789.636 400.401C788.929 399.558 788.12 399.062 787.211 398.911C786.301 398.76 785.379 399.077 784.445 399.861C783.832 400.376 783.413 401.028 783.187 401.817C782.949 402.591 782.822 403.403 782.804 404.254L780.817 404.08C780.865 402.891 781.066 401.809 781.421 400.832C781.763 399.84 782.417 398.939 783.382 398.129C784.746 396.985 786.153 396.483 787.602 396.624C789.039 396.75 790.304 397.464 791.397 398.766C791.976 399.456 792.407 400.281 792.692 401.243C792.98 402.177 793.17 403.244 793.264 404.445C793.36 405.617 793.381 406.918 793.327 408.347C793.276 409.748 793.192 411.267 793.078 412.904C793.45 412.539 793.838 412.161 794.241 411.77C794.645 411.38 795.038 411.024 795.421 410.702L799.672 407.135L801.042 408.767L791.573 416.711Z" fill="white"/>
    <path d="M808.031 403.372C806.545 404.619 804.835 404.93 802.903 404.307C800.97 403.684 798.968 402.139 796.898 399.672C794.829 397.205 793.668 394.981 793.415 393C793.162 391.019 793.779 389.405 795.265 388.158C796.736 386.924 798.425 386.603 800.332 387.196C802.24 387.789 804.228 389.318 806.298 391.785C808.368 394.252 809.542 396.491 809.82 398.503C810.098 400.514 809.502 402.137 808.031 403.372ZM806.758 401.855C807.187 401.495 807.474 401.059 807.618 400.546C807.765 400.005 807.755 399.387 807.589 398.691C807.425 397.967 807.091 397.164 806.586 396.282C806.068 395.385 805.359 394.4 804.459 393.328C803.559 392.255 802.719 391.394 801.938 390.743C801.158 390.093 800.438 389.64 799.779 389.383C799.122 389.099 798.522 388.989 797.976 389.055C797.446 389.108 796.967 389.315 796.538 389.675C796.109 390.035 795.815 390.477 795.655 391.003C795.496 391.528 795.491 392.146 795.642 392.854C795.796 393.535 796.125 394.316 796.63 395.198C797.135 396.08 797.837 397.057 798.737 398.129C800.537 400.274 802.109 401.618 803.452 402.162C804.798 402.677 805.9 402.575 806.758 401.855Z" fill="white"/>
    <path d="M837.742 461.042L836.43 459.48L839.786 456.664L830.722 445.863L828.057 448.1L827.034 446.882C827.606 446.194 828.066 445.56 828.415 444.98C828.766 444.372 829.038 443.778 829.231 443.198L830.678 441.984L841.67 455.083L844.704 452.537L846.015 454.1L837.742 461.042Z" fill="white"/>
    <path d="M849.165 451.457L847.854 449.894L851.209 447.079L842.146 436.278L839.48 438.515L838.458 437.297C839.029 436.608 839.489 435.974 839.838 435.394C840.189 434.786 840.461 434.193 840.654 433.613L842.102 432.398L853.093 445.498L856.127 442.952L857.438 444.515L849.165 451.457Z" fill="white"/>
    <path d="M862.088 446.879L851.447 421.737L852.826 420.58L863.467 445.722L862.088 446.879Z" fill="white"/>
    <path d="M867.727 435.882L866.782 434.756C866.959 432.727 867.104 430.909 867.216 429.3C867.329 427.692 867.361 426.268 867.313 425.028C867.253 423.774 867.112 422.704 866.891 421.819C866.658 420.918 866.29 420.169 865.789 419.571C865.082 418.729 864.274 418.232 863.364 418.082C862.455 417.931 861.532 418.248 860.598 419.032C859.985 419.546 859.566 420.198 859.341 420.988C859.103 421.762 858.975 422.574 858.957 423.424L856.971 423.25C857.018 422.062 857.219 420.98 857.574 420.003C857.917 419.011 858.57 418.109 859.536 417.3C860.899 416.155 862.306 415.654 863.756 415.795C865.193 415.921 866.458 416.635 867.55 417.937C868.129 418.626 868.561 419.452 868.846 420.414C869.133 421.348 869.324 422.415 869.417 423.615C869.513 424.788 869.535 426.089 869.48 427.518C869.429 428.919 869.346 430.437 869.231 432.074C869.604 431.709 869.991 431.332 870.395 430.941C870.798 430.55 871.191 430.194 871.574 429.873L875.826 426.305L877.195 427.937L867.727 435.882Z" fill="white"/>
    <path d="M884.184 422.542C882.698 423.789 880.989 424.101 879.056 423.478C877.123 422.854 875.122 421.309 873.052 418.843C870.982 416.376 869.821 414.152 869.568 412.171C869.316 410.19 869.933 408.576 871.419 407.329C872.889 406.094 874.578 405.774 876.486 406.366C878.393 406.959 880.381 408.489 882.451 410.956C884.521 413.422 885.695 415.661 885.973 417.673C886.251 419.685 885.655 421.308 884.184 422.542ZM882.912 421.025C883.341 420.665 883.627 420.229 883.771 419.717C883.918 419.176 883.908 418.557 883.742 417.861C883.578 417.137 883.244 416.334 882.739 415.453C882.221 414.555 881.513 413.571 880.613 412.498C879.713 411.426 878.872 410.564 878.092 409.914C877.311 409.264 876.591 408.81 875.932 408.554C875.276 408.269 874.675 408.16 874.13 408.226C873.6 408.279 873.12 408.485 872.691 408.845C872.262 409.205 871.968 409.648 871.809 410.174C871.649 410.699 871.645 411.316 871.796 412.025C871.949 412.706 872.278 413.487 872.783 414.369C873.288 415.25 873.99 416.227 874.89 417.3C876.69 419.445 878.262 420.789 879.606 421.332C880.952 421.848 882.054 421.745 882.912 421.025Z" fill="white"/>
    <path d="M890.573 416.711L889.628 415.585C889.806 413.557 889.951 411.738 890.063 410.129C890.175 408.521 890.208 407.097 890.16 405.858C890.099 404.603 889.959 403.533 889.738 402.648C889.505 401.747 889.137 400.998 888.636 400.401C887.929 399.558 887.12 399.062 886.211 398.911C885.301 398.76 884.379 399.077 883.445 399.861C882.832 400.376 882.413 401.028 882.187 401.817C881.949 402.591 881.822 403.403 881.804 404.254L879.817 404.08C879.865 402.891 880.066 401.809 880.421 400.832C880.763 399.84 881.417 398.939 882.382 398.129C883.746 396.985 885.153 396.483 886.602 396.624C888.039 396.75 889.304 397.464 890.397 398.766C890.976 399.456 891.407 400.281 891.692 401.243C891.98 402.177 892.17 403.244 892.264 404.445C892.36 405.617 892.381 406.918 892.327 408.347C892.276 409.748 892.192 411.267 892.078 412.904C892.45 412.539 892.838 412.161 893.241 411.77C893.645 411.38 894.038 411.024 894.421 410.702L898.672 407.135L900.042 408.767L890.573 416.711Z" fill="white"/>
    <path d="M907.031 403.372C905.545 404.619 903.835 404.93 901.903 404.307C899.97 403.684 897.968 402.139 895.898 399.672C893.829 397.205 892.668 394.981 892.415 393C892.162 391.019 892.779 389.405 894.265 388.158C895.736 386.924 897.425 386.603 899.332 387.196C901.24 387.789 903.228 389.318 905.298 391.785C907.368 394.252 908.542 396.491 908.82 398.503C909.098 400.514 908.502 402.137 907.031 403.372ZM905.758 401.855C906.187 401.495 906.474 401.059 906.618 400.546C906.765 400.005 906.755 399.387 906.589 398.691C906.425 397.967 906.091 397.164 905.586 396.282C905.068 395.385 904.359 394.4 903.459 393.328C902.559 392.255 901.719 391.394 900.938 390.743C900.158 390.093 899.438 389.64 898.779 389.383C898.122 389.099 897.522 388.989 896.976 389.055C896.446 389.108 895.967 389.315 895.538 389.675C895.109 390.035 894.815 390.477 894.655 391.003C894.496 391.528 894.491 392.146 894.642 392.854C894.796 393.535 895.125 394.316 895.63 395.198C896.135 396.08 896.837 397.057 897.737 398.129C899.537 400.274 901.109 401.618 902.452 402.162C903.798 402.677 904.9 402.575 905.758 401.855Z" fill="white"/>
    <path d="M936.742 461.042L935.43 459.48L938.786 456.664L929.722 445.863L927.057 448.1L926.034 446.882C926.606 446.194 927.066 445.56 927.415 444.98C927.766 444.372 928.038 443.778 928.231 443.198L929.678 441.984L940.67 455.083L943.704 452.537L945.015 454.1L936.742 461.042Z" fill="white"/>
    <path d="M947.269 452.209L946.324 451.083C946.501 449.054 946.646 447.236 946.759 445.627C946.871 444.019 946.903 442.595 946.855 441.355C946.795 440.101 946.654 439.031 946.434 438.146C946.2 437.245 945.833 436.496 945.331 435.899C944.624 435.056 943.816 434.559 942.906 434.409C941.997 434.258 941.075 434.575 940.14 435.359C939.527 435.873 939.108 436.525 938.883 437.315C938.645 438.089 938.517 438.901 938.499 439.751L936.513 439.578C936.56 438.389 936.761 437.307 937.117 436.33C937.459 435.338 938.113 434.437 939.078 433.627C940.441 432.482 941.848 431.981 943.298 432.122C944.735 432.248 946 432.962 947.093 434.264C947.671 434.953 948.103 435.779 948.388 436.741C948.675 437.675 948.866 438.742 948.959 439.942C949.056 441.115 949.077 442.416 949.023 443.845C948.971 445.246 948.888 446.765 948.773 448.401C949.146 448.036 949.534 447.659 949.937 447.268C950.34 446.877 950.733 446.521 951.116 446.2L955.368 442.633L956.737 444.264L947.269 452.209Z" fill="white"/>
    <path d="M961.088 446.879L950.447 421.737L951.826 420.58L962.467 445.722L961.088 446.879Z" fill="white"/>
    <path d="M966.727 435.882L965.782 434.756C965.959 432.727 966.104 430.909 966.216 429.3C966.329 427.692 966.361 426.268 966.313 425.028C966.253 423.774 966.112 422.704 965.891 421.819C965.658 420.918 965.29 420.169 964.789 419.571C964.082 418.729 963.274 418.232 962.364 418.082C961.455 417.931 960.532 418.248 959.598 419.032C958.985 419.546 958.566 420.198 958.341 420.988C958.103 421.762 957.975 422.574 957.957 423.424L955.971 423.25C956.018 422.062 956.219 420.98 956.574 420.003C956.917 419.011 957.57 418.109 958.536 417.3C959.899 416.155 961.306 415.654 962.756 415.795C964.193 415.921 965.458 416.635 966.55 417.937C967.129 418.626 967.561 419.452 967.846 420.414C968.133 421.348 968.324 422.415 968.417 423.615C968.513 424.788 968.535 426.089 968.48 427.518C968.429 428.919 968.346 430.437 968.231 432.074C968.604 431.709 968.991 431.332 969.395 430.941C969.798 430.55 970.191 430.194 970.574 429.873L974.826 426.305L976.195 427.937L966.727 435.882Z" fill="white"/>
    <path d="M983.184 422.542C981.698 423.789 979.989 424.101 978.056 423.478C976.123 422.854 974.122 421.309 972.052 418.843C969.982 416.376 968.821 414.152 968.568 412.171C968.316 410.19 968.933 408.576 970.419 407.329C971.889 406.094 973.578 405.774 975.486 406.366C977.393 406.959 979.381 408.489 981.451 410.956C983.521 413.422 984.695 415.661 984.973 417.673C985.251 419.685 984.655 421.308 983.184 422.542ZM981.912 421.025C982.341 420.665 982.627 420.229 982.771 419.717C982.918 419.176 982.908 418.557 982.742 417.861C982.578 417.137 982.244 416.334 981.739 415.453C981.221 414.555 980.513 413.571 979.613 412.498C978.713 411.426 977.872 410.564 977.092 409.914C976.311 409.264 975.591 408.81 974.932 408.554C974.276 408.269 973.675 408.16 973.13 408.226C972.6 408.279 972.12 408.485 971.691 408.845C971.262 409.205 970.968 409.648 970.809 410.174C970.649 410.699 970.645 411.316 970.796 412.025C970.949 412.706 971.278 413.487 971.783 414.369C972.288 415.25 972.99 416.227 973.89 417.3C975.69 419.445 977.262 420.789 978.606 421.332C979.952 421.848 981.054 421.745 981.912 421.025Z" fill="white"/>
    <path d="M989.573 416.711L988.628 415.585C988.806 413.557 988.951 411.738 989.063 410.129C989.175 408.521 989.208 407.097 989.16 405.858C989.099 404.603 988.959 403.533 988.738 402.648C988.505 401.747 988.137 400.998 987.636 400.401C986.929 399.558 986.12 399.062 985.211 398.911C984.301 398.76 983.379 399.077 982.445 399.861C981.832 400.376 981.413 401.028 981.187 401.817C980.949 402.591 980.822 403.403 980.804 404.254L978.817 404.08C978.865 402.891 979.066 401.809 979.421 400.832C979.763 399.84 980.417 398.939 981.382 398.129C982.746 396.985 984.153 396.483 985.602 396.624C987.039 396.75 988.304 397.464 989.397 398.766C989.976 399.456 990.407 400.281 990.692 401.243C990.98 402.177 991.17 403.244 991.264 404.445C991.36 405.617 991.381 406.918 991.327 408.347C991.276 409.748 991.192 411.267 991.078 412.904C991.45 412.539 991.838 412.161 992.241 411.77C992.645 411.38 993.038 411.024 993.421 410.702L997.672 407.135L999.042 408.767L989.573 416.711Z" fill="white"/>
    <path d="M1006.03 403.372C1004.54 404.619 1002.84 404.93 1000.9 404.307C998.97 403.684 996.968 402.139 994.898 399.672C992.829 397.205 991.668 394.981 991.415 393C991.162 391.019 991.779 389.405 993.265 388.158C994.736 386.924 996.425 386.603 998.332 387.196C1000.24 387.789 1002.23 389.318 1004.3 391.785C1006.37 394.252 1007.54 396.491 1007.82 398.503C1008.1 400.514 1007.5 402.137 1006.03 403.372ZM1004.76 401.855C1005.19 401.495 1005.47 401.059 1005.62 400.546C1005.76 400.005 1005.76 399.387 1005.59 398.691C1005.43 397.967 1005.09 397.164 1004.59 396.282C1004.07 395.385 1003.36 394.4 1002.46 393.328C1001.56 392.255 1000.72 391.394 999.938 390.743C999.158 390.093 998.438 389.64 997.779 389.383C997.122 389.099 996.522 388.989 995.976 389.055C995.446 389.108 994.967 389.315 994.538 389.675C994.109 390.035 993.815 390.477 993.655 391.003C993.496 391.528 993.491 392.146 993.642 392.854C993.796 393.535 994.125 394.316 994.63 395.198C995.135 396.08 995.837 397.057 996.737 398.129C998.537 400.274 1000.11 401.618 1001.45 402.162C1002.8 402.677 1003.9 402.575 1004.76 401.855Z" fill="white"/>
    <path d="M1035.74 461.042L1034.43 459.48L1037.79 456.664L1028.72 445.863L1026.06 448.1L1025.03 446.882C1025.61 446.194 1026.07 445.56 1026.41 444.98C1026.77 444.372 1027.04 443.778 1027.23 443.198L1028.68 441.984L1039.67 455.083L1042.7 452.537L1044.01 454.1L1035.74 461.042Z" fill="white"/>
    <path d="M1048.66 456.465L1038.02 431.322L1039.4 430.165L1050.04 455.308L1048.66 456.465Z" fill="white"/>
    <path d="M1054.3 445.467L1053.36 444.341C1053.54 442.313 1053.68 440.494 1053.79 438.885C1053.91 437.277 1053.94 435.853 1053.89 434.614C1053.83 433.359 1053.69 432.289 1053.47 431.404C1053.23 430.503 1052.87 429.754 1052.37 429.157C1051.66 428.314 1050.85 427.818 1049.94 427.667C1049.03 427.516 1048.11 427.833 1047.17 428.617C1046.56 429.132 1046.14 429.784 1045.92 430.573C1045.68 431.347 1045.55 432.159 1045.53 433.01L1043.55 432.836C1043.59 431.647 1043.8 430.565 1044.15 429.588C1044.49 428.596 1045.15 427.695 1046.11 426.885C1047.48 425.741 1048.88 425.239 1050.33 425.38C1051.77 425.506 1053.03 426.22 1054.13 427.522C1054.71 428.212 1055.14 429.037 1055.42 429.999C1055.71 430.933 1055.9 432 1055.99 433.201C1056.09 434.373 1056.11 435.674 1056.06 437.103C1056.01 438.504 1055.92 440.023 1055.81 441.66C1056.18 441.295 1056.57 440.917 1056.97 440.526C1057.37 440.136 1057.77 439.78 1058.15 439.458L1062.4 435.891L1063.77 437.522L1054.3 445.467Z" fill="white"/>
    <path d="M1070.76 432.128C1069.27 433.375 1067.57 433.686 1065.63 433.063C1063.7 432.44 1061.7 430.895 1059.63 428.428C1057.56 425.961 1056.4 423.737 1056.14 421.756C1055.89 419.775 1056.51 418.161 1058 416.914C1059.47 415.68 1061.16 415.359 1063.06 415.952C1064.97 416.545 1066.96 418.074 1069.03 420.541C1071.1 423.008 1072.27 425.247 1072.55 427.259C1072.83 429.27 1072.23 430.893 1070.76 432.128ZM1069.49 430.611C1069.92 430.251 1070.2 429.814 1070.35 429.302C1070.49 428.761 1070.49 428.143 1070.32 427.447C1070.16 426.723 1069.82 425.92 1069.32 425.038C1068.8 424.141 1068.09 423.156 1067.19 422.084C1066.29 421.011 1065.45 420.15 1064.67 419.499C1063.89 418.849 1063.17 418.396 1062.51 418.139C1061.85 417.855 1061.25 417.745 1060.71 417.811C1060.18 417.864 1059.7 418.071 1059.27 418.431C1058.84 418.791 1058.54 419.233 1058.39 419.759C1058.23 420.284 1058.22 420.901 1058.37 421.61C1058.53 422.291 1058.85 423.072 1059.36 423.954C1059.86 424.836 1060.57 425.813 1061.47 426.885C1063.27 429.03 1064.84 430.374 1066.18 430.918C1067.53 431.433 1068.63 431.331 1069.49 430.611Z" fill="white"/>
    <path d="M1077.15 426.297L1076.21 425.171C1076.38 423.142 1076.53 421.323 1076.64 419.715C1076.75 418.106 1076.78 416.682 1076.74 415.443C1076.68 414.189 1076.54 413.119 1076.31 412.233C1076.08 411.333 1075.71 410.584 1075.21 409.986C1074.51 409.144 1073.7 408.647 1072.79 408.496C1071.88 408.346 1070.96 408.663 1070.02 409.447C1069.41 409.961 1068.99 410.613 1068.76 411.402C1068.53 412.177 1068.4 412.989 1068.38 413.839L1066.39 413.665C1066.44 412.477 1066.64 411.394 1067 410.417C1067.34 409.425 1067.99 408.524 1068.96 407.714C1070.32 406.57 1071.73 406.069 1073.18 406.21C1074.62 406.335 1075.88 407.049 1076.97 408.352C1077.55 409.041 1077.98 409.867 1078.27 410.829C1078.56 411.762 1078.75 412.829 1078.84 414.03C1078.94 415.203 1078.96 416.503 1078.9 417.932C1078.85 419.333 1078.77 420.852 1078.65 422.489C1079.03 422.124 1079.41 421.746 1079.82 421.356C1080.22 420.965 1080.61 420.609 1081 420.288L1085.25 416.72L1086.62 418.352L1077.15 426.297Z" fill="white"/>
    <path d="M1089.47 415.959L1088.16 414.397L1091.51 411.581L1082.45 400.78L1079.78 403.017L1078.76 401.799C1079.33 401.111 1079.79 400.477 1080.14 399.897C1080.49 399.289 1080.77 398.695 1080.96 398.115L1082.41 396.901L1093.4 410L1096.43 407.454L1097.74 409.017L1089.47 415.959Z" fill="white"/>
    <path d="M1122.85 461.794L1121.9 460.668C1122.08 458.639 1122.22 456.821 1122.34 455.212C1122.45 453.604 1122.48 452.18 1122.43 450.941C1122.37 449.686 1122.23 448.616 1122.01 447.731C1121.78 446.83 1121.41 446.081 1120.91 445.484C1120.2 444.641 1119.39 444.145 1118.48 443.994C1117.57 443.843 1116.65 444.16 1115.72 444.944C1115.1 445.459 1114.68 446.11 1114.46 446.9C1114.22 447.674 1114.09 448.486 1114.08 449.337L1112.09 449.163C1112.14 447.974 1112.34 446.892 1112.69 445.915C1113.04 444.923 1113.69 444.022 1114.65 443.212C1116.02 442.068 1117.42 441.566 1118.87 441.707C1120.31 441.833 1121.58 442.547 1122.67 443.849C1123.25 444.539 1123.68 445.364 1123.96 446.326C1124.25 447.26 1124.44 448.327 1124.54 449.528C1124.63 450.7 1124.65 452.001 1124.6 453.43C1124.55 454.831 1124.46 456.35 1124.35 457.986C1124.72 457.622 1125.11 457.244 1125.51 456.853C1125.92 456.463 1126.31 456.107 1126.69 455.785L1130.94 452.218L1132.31 453.849L1122.85 461.794Z" fill="white"/>
    <path d="M1136.66 456.465L1126.02 431.322L1127.4 430.165L1138.04 455.307L1136.66 456.465Z" fill="white"/>
    <path d="M1142.3 445.467L1141.36 444.341C1141.54 442.312 1141.68 440.494 1141.79 438.885C1141.91 437.277 1141.94 435.853 1141.89 434.614C1141.83 433.359 1141.69 432.289 1141.47 431.404C1141.23 430.503 1140.87 429.754 1140.37 429.157C1139.66 428.314 1138.85 427.817 1137.94 427.667C1137.03 427.516 1136.11 427.833 1135.17 428.617C1134.56 429.132 1134.14 429.783 1133.92 430.573C1133.68 431.347 1133.55 432.159 1133.53 433.009L1131.55 432.836C1131.59 431.647 1131.8 430.565 1132.15 429.588C1132.49 428.596 1133.15 427.695 1134.11 426.885C1135.48 425.741 1136.88 425.239 1138.33 425.38C1139.77 425.506 1141.03 426.22 1142.13 427.522C1142.71 428.212 1143.14 429.037 1143.42 429.999C1143.71 430.933 1143.9 432 1143.99 433.201C1144.09 434.373 1144.11 435.674 1144.06 437.103C1144.01 438.504 1143.92 440.023 1143.81 441.659C1144.18 441.295 1144.57 440.917 1144.97 440.526C1145.37 440.136 1145.77 439.78 1146.15 439.458L1150.4 435.891L1151.77 437.522L1142.3 445.467Z" fill="white"/>
    <path d="M1158.76 432.127C1157.27 433.374 1155.57 433.686 1153.63 433.063C1151.7 432.439 1149.7 430.894 1147.63 428.428C1145.56 425.961 1144.4 423.737 1144.14 421.756C1143.89 419.775 1144.51 418.161 1146 416.914C1147.47 415.68 1149.16 415.359 1151.06 415.952C1152.97 416.544 1154.96 418.074 1157.03 420.541C1159.1 423.007 1160.27 425.247 1160.55 427.258C1160.83 429.27 1160.23 430.893 1158.76 432.127ZM1157.49 430.611C1157.92 430.251 1158.2 429.814 1158.35 429.302C1158.49 428.761 1158.48 428.143 1158.32 427.447C1158.15 426.722 1157.82 425.92 1157.32 425.038C1156.8 424.141 1156.09 423.156 1155.19 422.083C1154.29 421.011 1153.45 420.15 1152.67 419.499C1151.89 418.849 1151.17 418.396 1150.51 418.139C1149.85 417.855 1149.25 417.745 1148.71 417.811C1148.18 417.864 1147.7 418.071 1147.27 418.431C1146.84 418.791 1146.54 419.233 1146.39 419.759C1146.23 420.284 1146.22 420.901 1146.37 421.61C1146.53 422.291 1146.85 423.072 1147.36 423.954C1147.86 424.836 1148.57 425.813 1149.47 426.885C1151.27 429.03 1152.84 430.374 1154.18 430.918C1155.53 431.433 1156.63 431.331 1157.49 430.611Z" fill="white"/>
    <path d="M1165.15 426.297L1164.2 425.171C1164.38 423.142 1164.53 421.323 1164.64 419.715C1164.75 418.106 1164.78 416.682 1164.74 415.443C1164.68 414.188 1164.54 413.119 1164.31 412.233C1164.08 411.333 1163.71 410.584 1163.21 409.986C1162.51 409.143 1161.7 408.647 1160.79 408.496C1159.88 408.346 1158.96 408.663 1158.02 409.447C1157.41 409.961 1156.99 410.613 1156.76 411.402C1156.53 412.176 1156.4 412.989 1156.38 413.839L1154.39 413.665C1154.44 412.477 1154.64 411.394 1155 410.417C1155.34 409.425 1155.99 408.524 1156.96 407.714C1158.32 406.57 1159.73 406.068 1161.18 406.209C1162.62 406.335 1163.88 407.049 1164.97 408.351C1165.55 409.041 1165.98 409.867 1166.27 410.828C1166.56 411.762 1166.75 412.829 1166.84 414.03C1166.94 415.202 1166.96 416.503 1166.9 417.932C1166.85 419.333 1166.77 420.852 1166.65 422.489C1167.03 422.124 1167.41 421.746 1167.82 421.356C1168.22 420.965 1168.61 420.609 1169 420.288L1173.25 416.72L1174.62 418.352L1165.15 426.297Z" fill="white"/>
    <path d="M1177.47 415.959L1176.16 414.396L1179.51 411.581L1170.45 400.78L1167.78 403.017L1166.76 401.799C1167.33 401.111 1167.79 400.476 1168.14 399.897C1168.49 399.288 1168.77 398.695 1168.96 398.115L1170.41 396.9L1181.4 410L1184.43 407.454L1185.74 409.017L1177.47 415.959Z" fill="white"/>
    <path d="M1215.58 458.291C1215 458.779 1214.41 459.168 1213.82 459.457C1213.25 459.748 1212.69 459.969 1212.14 460.119C1211.58 460.254 1211.03 460.334 1210.5 460.359C1209.99 460.371 1209.5 460.342 1209.02 460.272L1208.94 458.221C1209.77 458.308 1210.63 458.283 1211.51 458.147C1212.4 457.998 1213.28 457.557 1214.15 456.824C1215.04 456.079 1215.57 455.23 1215.74 454.28C1215.9 453.314 1215.63 452.417 1214.93 451.59C1214.57 451.161 1214.16 450.841 1213.7 450.63C1213.23 450.391 1212.71 450.295 1212.12 450.343C1211.54 450.392 1210.89 450.597 1210.17 450.961C1209.46 451.324 1208.67 451.872 1207.8 452.605L1206.58 451.157C1207.36 450.502 1207.95 449.886 1208.36 449.311C1208.78 448.724 1209.05 448.172 1209.16 447.657C1209.3 447.129 1209.29 446.639 1209.14 446.186C1209 445.733 1208.77 445.315 1208.45 444.932C1207.84 444.212 1207.14 443.838 1206.33 443.81C1205.54 443.769 1204.75 444.077 1203.97 444.732C1203.36 445.247 1202.91 445.86 1202.62 446.573C1202.34 447.273 1202.17 448.032 1202.1 448.849L1200.08 448.502C1200.2 447.49 1200.45 446.533 1200.85 445.63C1201.24 444.699 1201.87 443.868 1202.75 443.135C1203.39 442.595 1204.05 442.184 1204.73 441.903C1205.41 441.621 1206.07 441.481 1206.72 441.481C1207.38 441.453 1208.01 441.579 1208.61 441.859C1209.21 442.138 1209.76 442.577 1210.26 443.175C1211.01 444.063 1211.37 444.997 1211.36 445.975C1211.34 446.953 1211.06 447.93 1210.53 448.905L1210.6 448.997C1211.14 448.731 1211.69 448.545 1212.25 448.438C1212.8 448.316 1213.35 448.293 1213.91 448.371C1214.46 448.433 1214.99 448.606 1215.49 448.892C1216 449.164 1216.47 449.553 1216.9 450.058C1217.44 450.702 1217.8 451.393 1217.97 452.133C1218.16 452.859 1218.19 453.593 1218.06 454.333C1217.92 455.046 1217.65 455.746 1217.23 456.433C1216.81 457.106 1216.26 457.725 1215.58 458.291Z" fill="white"/>
    <path d="M1224.66 456.465L1214.02 431.322L1215.4 430.165L1226.04 455.308L1224.66 456.465Z" fill="white"/>
    <path d="M1230.3 445.467L1229.36 444.341C1229.54 442.312 1229.68 440.494 1229.79 438.885C1229.91 437.277 1229.94 435.853 1229.89 434.614C1229.83 433.359 1229.69 432.289 1229.47 431.404C1229.23 430.503 1228.87 429.754 1228.37 429.157C1227.66 428.314 1226.85 427.817 1225.94 427.667C1225.03 427.516 1224.11 427.833 1223.17 428.617C1222.56 429.132 1222.14 429.783 1221.92 430.573C1221.68 431.347 1221.55 432.159 1221.53 433.01L1219.55 432.836C1219.59 431.647 1219.8 430.565 1220.15 429.588C1220.49 428.596 1221.15 427.695 1222.11 426.885C1223.48 425.741 1224.88 425.239 1226.33 425.38C1227.77 425.506 1229.03 426.22 1230.13 427.522C1230.71 428.212 1231.14 429.037 1231.42 429.999C1231.71 430.933 1231.9 432 1231.99 433.201C1232.09 434.373 1232.11 435.674 1232.06 437.103C1232.01 438.504 1231.92 440.023 1231.81 441.659C1232.18 441.295 1232.57 440.917 1232.97 440.526C1233.37 440.136 1233.77 439.78 1234.15 439.458L1238.4 435.891L1239.77 437.522L1230.3 445.467Z" fill="white"/>
    <path d="M1246.76 432.127C1245.27 433.374 1243.57 433.686 1241.63 433.063C1239.7 432.44 1237.7 430.894 1235.63 428.428C1233.56 425.961 1232.4 423.737 1232.14 421.756C1231.89 419.775 1232.51 418.161 1234 416.914C1235.47 415.68 1237.16 415.359 1239.06 415.952C1240.97 416.544 1242.96 418.074 1245.03 420.541C1247.1 423.007 1248.27 425.247 1248.55 427.259C1248.83 429.27 1248.23 430.893 1246.76 432.127ZM1245.49 430.611C1245.92 430.251 1246.2 429.814 1246.35 429.302C1246.49 428.761 1246.49 428.143 1246.32 427.447C1246.16 426.722 1245.82 425.92 1245.32 425.038C1244.8 424.141 1244.09 423.156 1243.19 422.084C1242.29 421.011 1241.45 420.15 1240.67 419.499C1239.89 418.849 1239.17 418.396 1238.51 418.139C1237.85 417.855 1237.25 417.745 1236.71 417.811C1236.18 417.864 1235.7 418.071 1235.27 418.431C1234.84 418.791 1234.54 419.233 1234.39 419.759C1234.23 420.284 1234.22 420.901 1234.37 421.61C1234.53 422.291 1234.85 423.072 1235.36 423.954C1235.86 424.836 1236.57 425.813 1237.47 426.885C1239.27 429.03 1240.84 430.374 1242.18 430.918C1243.53 431.433 1244.63 431.331 1245.49 430.611Z" fill="white"/>
    <path d="M1253.15 426.297L1252.2 425.171C1252.38 423.142 1252.53 421.323 1252.64 419.715C1252.75 418.106 1252.78 416.682 1252.74 415.443C1252.68 414.188 1252.54 413.119 1252.31 412.233C1252.08 411.333 1251.71 410.584 1251.21 409.986C1250.51 409.143 1249.7 408.647 1248.79 408.496C1247.88 408.346 1246.96 408.663 1246.02 409.447C1245.41 409.961 1244.99 410.613 1244.76 411.402C1244.53 412.176 1244.4 412.989 1244.38 413.839L1242.39 413.665C1242.44 412.477 1242.64 411.394 1243 410.417C1243.34 409.425 1243.99 408.524 1244.96 407.714C1246.32 406.57 1247.73 406.068 1249.18 406.209C1250.62 406.335 1251.88 407.049 1252.97 408.351C1253.55 409.041 1253.98 409.867 1254.27 410.828C1254.56 411.762 1254.75 412.829 1254.84 414.03C1254.94 415.203 1254.96 416.503 1254.9 417.932C1254.85 419.333 1254.77 420.852 1254.65 422.489C1255.03 422.124 1255.41 421.746 1255.82 421.356C1256.22 420.965 1256.61 420.609 1257 420.288L1261.25 416.72L1262.62 418.352L1253.15 426.297Z" fill="white"/>
    <path d="M1265.47 415.959L1264.16 414.397L1267.51 411.581L1258.45 400.78L1255.78 403.017L1254.76 401.799C1255.33 401.111 1255.79 400.476 1256.14 399.897C1256.49 399.288 1256.77 398.695 1256.96 398.115L1258.41 396.901L1269.4 410L1272.43 407.454L1273.74 409.017L1265.47 415.959Z" fill="white"/>
    <path d="M1304.91 456.704L1301.52 452.659L1294.92 458.193L1293.88 456.952L1292.29 442.312L1294.4 440.538L1302.04 449.638L1304.04 447.96L1305.31 449.477L1303.31 451.155L1306.71 455.2L1304.91 456.704ZM1295.65 454.999L1300.25 451.142L1296.68 446.891C1296.34 446.492 1295.96 446.019 1295.53 445.47C1295.09 444.892 1294.73 444.392 1294.42 443.968L1294.33 444.045C1294.44 444.551 1294.54 445.057 1294.62 445.561C1294.71 446.065 1294.79 446.583 1294.87 447.116L1295.65 454.999Z" fill="white"/>
    <path d="M1312.66 456.465L1302.02 431.322L1303.4 430.165L1314.04 455.308L1312.66 456.465Z" fill="white"/>
    <path d="M1318.3 445.468L1317.36 444.341C1317.54 442.313 1317.68 440.494 1317.79 438.886C1317.91 437.277 1317.94 435.853 1317.89 434.614C1317.83 433.359 1317.69 432.289 1317.47 431.404C1317.23 430.504 1316.87 429.755 1316.37 429.157C1315.66 428.314 1314.85 427.818 1313.94 427.667C1313.03 427.517 1312.11 427.833 1311.17 428.618C1310.56 429.132 1310.14 429.784 1309.92 430.573C1309.68 431.347 1309.55 432.16 1309.53 433.01L1307.55 432.836C1307.59 431.648 1307.8 430.565 1308.15 429.588C1308.49 428.596 1309.15 427.695 1310.11 426.885C1311.48 425.741 1312.88 425.239 1314.33 425.38C1315.77 425.506 1317.03 426.22 1318.13 427.522C1318.71 428.212 1319.14 429.037 1319.42 429.999C1319.71 430.933 1319.9 432 1319.99 433.201C1320.09 434.373 1320.11 435.674 1320.06 437.103C1320.01 438.504 1319.92 440.023 1319.81 441.66C1320.18 441.295 1320.57 440.917 1320.97 440.526C1321.37 440.136 1321.77 439.78 1322.15 439.458L1326.4 435.891L1327.77 437.523L1318.3 445.468Z" fill="white"/>
    <path d="M1334.76 432.128C1333.27 433.375 1331.57 433.687 1329.63 433.063C1327.7 432.44 1325.7 430.895 1323.63 428.428C1321.56 425.961 1320.4 423.738 1320.14 421.756C1319.89 419.775 1320.51 418.161 1322 416.914C1323.47 415.68 1325.16 415.359 1327.06 415.952C1328.97 416.545 1330.96 418.074 1333.03 420.541C1335.1 423.008 1336.27 425.247 1336.55 427.259C1336.83 429.271 1336.23 430.894 1334.76 432.128ZM1333.49 430.611C1333.92 430.251 1334.2 429.815 1334.35 429.302C1334.49 428.761 1334.49 428.143 1334.32 427.447C1334.16 426.723 1333.82 425.92 1333.32 425.038C1332.8 424.141 1332.09 423.156 1331.19 422.084C1330.29 421.011 1329.45 420.15 1328.67 419.5C1327.89 418.849 1327.17 418.396 1326.51 418.139C1325.85 417.855 1325.25 417.746 1324.71 417.811C1324.18 417.864 1323.7 418.071 1323.27 418.431C1322.84 418.791 1322.54 419.234 1322.39 419.759C1322.23 420.285 1322.22 420.902 1322.37 421.611C1322.53 422.291 1322.85 423.072 1323.36 423.954C1323.86 424.836 1324.57 425.813 1325.47 426.885C1327.27 429.03 1328.84 430.375 1330.18 430.918C1331.53 431.433 1332.63 431.331 1333.49 430.611Z" fill="white"/>
    <path d="M1341.15 426.297L1340.21 425.171C1340.38 423.142 1340.53 421.323 1340.64 419.715C1340.75 418.106 1340.78 416.683 1340.74 415.443C1340.68 414.189 1340.54 413.119 1340.31 412.234C1340.08 411.333 1339.71 410.584 1339.21 409.986C1338.51 409.144 1337.7 408.647 1336.79 408.497C1335.88 408.346 1334.96 408.663 1334.02 409.447C1333.41 409.961 1332.99 410.613 1332.76 411.403C1332.53 412.177 1332.4 412.989 1332.38 413.839L1330.39 413.665C1330.44 412.477 1330.64 411.394 1331 410.418C1331.34 409.425 1331.99 408.524 1332.96 407.714C1334.32 406.57 1335.73 406.069 1337.18 406.21C1338.62 406.335 1339.88 407.049 1340.97 408.352C1341.55 409.041 1341.98 409.867 1342.27 410.829C1342.56 411.762 1342.75 412.83 1342.84 414.03C1342.94 415.203 1342.96 416.504 1342.9 417.933C1342.85 419.334 1342.77 420.852 1342.65 422.489C1343.03 422.124 1343.41 421.746 1343.82 421.356C1344.22 420.965 1344.61 420.609 1345 420.288L1349.25 416.72L1350.62 418.352L1341.15 426.297Z" fill="white"/>
    <path d="M1353.47 415.96L1352.16 414.397L1355.51 411.581L1346.45 400.78L1343.78 403.017L1342.76 401.799C1343.33 401.111 1343.79 400.477 1344.14 399.897C1344.49 399.289 1344.77 398.695 1344.96 398.116L1346.41 396.901L1357.4 410L1360.43 407.455L1361.74 409.017L1353.47 415.96Z" fill="white"/>
    <path fill-rule="evenodd" clip-rule="evenodd" d="M1407 372H169V368H1407V372Z" fill="white"/>
    <path opacity="0.3" fill-rule="evenodd" clip-rule="evenodd" d="M1407 332H169V331H1407V332Z" fill="white"/>
    <path opacity="0.3" fill-rule="evenodd" clip-rule="evenodd" d="M1407 292H169V291H1407V292Z" fill="white"/>
    <path opacity="0.3" fill-rule="evenodd" clip-rule="evenodd" d="M1407 252H169V251H1407V252Z" fill="white"/>
    <path opacity="0.3" fill-rule="evenodd" clip-rule="evenodd" d="M1407 212H169V211H1407V212Z" fill="white"/>
    <path opacity="0.3" fill-rule="evenodd" clip-rule="evenodd" d="M1407 172H169V171H1407V172Z" fill="white"/>
    <path opacity="0.3" fill-rule="evenodd" clip-rule="evenodd" d="M1407 132H169V131H1407V132Z" fill="white"/>
    <path opacity="0.3" fill-rule="evenodd" clip-rule="evenodd" d="M1407 92H169V91H1407V92Z" fill="white"/>
    <path opacity="0.3" fill-rule="evenodd" clip-rule="evenodd" d="M1407 52H169V51H1407V52Z" fill="white"/>
    <path opacity="0.3" fill-rule="evenodd" clip-rule="evenodd" d="M1407 12H169V11H1407V12Z" fill="white"/>
    <path fill-rule="evenodd" clip-rule="evenodd" d="M1038 286.357C954.41 317.45 888.203 314.789 833.825 307.254C726.068 292.321 646.354 313.34 617.325 322.169C587.759 331.162 545.255 337.276 441.335 341.165C358.258 344.274 264.634 351.344 228.215 354.491L227.785 349.509C264.251 346.359 357.962 339.281 441.148 336.168C545.057 332.28 586.983 326.172 615.87 317.386C645.292 308.437 725.78 287.234 834.512 302.301C888.379 309.766 953.689 312.383 1036.26 281.671C1118.88 250.936 1218.98 186.751 1342.21 60.2554L1345.79 63.7444C1222.23 190.582 1121.53 255.286 1038 286.357Z" fill="url(#paint0_linear)"/>
    <path d="M175 369C175 372.314 172.314 375 169 375C165.686 375 163 372.314 163 369C163 365.686 165.686 363 169 363C172.314 363 175 365.686 175 369Z" fill="white"/>
    <path d="M265 369C265 372.314 262.314 375 259 375C255.686 375 253 372.314 253 369C253 365.686 255.686 363 259 363C262.314 363 265 365.686 265 369Z" fill="white"/>
    <path d="M355 369C355 372.314 352.314 375 349 375C345.686 375 343 372.314 343 369C343 365.686 345.686 363 349 363C352.314 363 355 365.686 355 369Z" fill="white"/>
    <path d="M445 369C445 372.314 442.314 375 439 375C435.686 375 433 372.314 433 369C433 365.686 435.686 363 439 363C442.314 363 445 365.686 445 369Z" fill="white"/>
    <path d="M535 369C535 372.314 532.314 375 529 375C525.686 375 523 372.314 523 369C523 365.686 525.686 363 529 363C532.314 363 535 365.686 535 369Z" fill="white"/>
    <path d="M625 369C625 372.314 622.314 375 619 375C615.686 375 613 372.314 613 369C613 365.686 615.686 363 619 363C622.314 363 625 365.686 625 369Z" fill="white"/>
    <path d="M715 369C715 372.314 712.314 375 709 375C705.686 375 703 372.314 703 369C703 365.686 705.686 363 709 363C712.314 363 715 365.686 715 369Z" fill="white"/>
    <path d="M805 369C805 372.314 802.314 375 799 375C795.686 375 793 372.314 793 369C793 365.686 795.686 363 799 363C802.314 363 805 365.686 805 369Z" fill="white"/>
    <path d="M895 369C895 372.314 892.313 375 889 375C885.686 375 883 372.314 883 369C883 365.686 885.686 363 889 363C892.313 363 895 365.686 895 369Z" fill="white"/>
    <path d="M985 369C985 372.314 982.313 375 979 375C975.686 375 973 372.314 973 369C973 365.686 975.686 363 979 363C982.313 363 985 365.686 985 369Z" fill="white"/>
    <path d="M1075 369C1075 372.314 1072.31 375 1069 375C1065.69 375 1063 372.314 1063 369C1063 365.686 1065.69 363 1069 363C1072.31 363 1075 365.686 1075 369Z" fill="white"/>
    <path d="M1165 369C1165 372.314 1162.31 375 1159 375C1155.69 375 1153 372.314 1153 369C1153 365.686 1155.69 363 1159 363C1162.31 363 1165 365.686 1165 369Z" fill="white"/>
    <path d="M1255 369C1255 372.314 1252.31 375 1249 375C1245.69 375 1243 372.314 1243 369C1243 365.686 1245.69 363 1249 363C1252.31 363 1255 365.686 1255 369Z" fill="white"/>
    <path d="M1345 369C1345 372.314 1342.31 375 1339 375C1335.69 375 1333 372.314 1333 369C1333 365.686 1335.69 363 1339 363C1342.31 363 1345 365.686 1345 369Z" fill="white"/>
    <defs>
        <linearGradient id="paint0_linear" x1="786" y1="61.9999" x2="786" y2="352" gradientUnits="userSpaceOnUse">
            <stop stop-color="#FF0168"/>
            <stop offset="1" stop-color="#FF9A01"/>
        </linearGradient>
    </defs>
</svg>
